<?xml version="1.0" encoding="utf-8"?>
<!-- Generator: Adobe Illustrator 16.0.0, SVG Export Plug-In . SVG Version: 6.00 Build 0)  -->
<!DOCTYPE svg PUBLIC "-//W3C//DTD SVG 1.1//EN" "http://www.w3.org/Graphics/SVG/1.1/DTD/svg11.dtd">
<svg xmlns="http://www.w3.org/2000/svg" width="514.868" height="700" viewBox="0 0 514.868 657.281" class="animate">
 <style type="text/css">
        <![CDATA[
        body {
 background-color: #000;
}

.container {
  position: relative;
  height: 100px;
  width: 100%;
  display: flex;
  justify-content: center;
  align-items: center;
}

.astronaut-sy {
  animation: astronaut 2s infinite alternate ease-in-out;
  
}

@keyframes astronaut {
  0% {
    transform: translateY(0px);
  }
  
  50% {
    transform: translateY(10px) rotate(0.6deg);
  
   100% {
    transform: translateY(0px);
}

        ]]> 
  </style>
  <g id="astronauta-crew" class="astronaut-sy" transform="translate(0.001 -0.002)">
    <g id="compu" transform="translate(2.011 25.431)">
      <g id="Group_2" data-name="Group 2" transform="translate(0 0)">
        <g id="Group_1" data-name="Group 1" transform="translate(76.3 63.205)">
          <path id="Path_1" data-name="Path 1" d="M73.107,61.6,54.5,73.956l9.3,19.479" transform="translate(-54.5 -61.6)" fill="none" stroke="#00dfa3" stroke-linecap="round" stroke-linejoin="round" stroke-width="4"/>
          <path id="Path_2" data-name="Path 2" d="M87.2,101.135,105.516,89.8,96.5,69.3" transform="translate(-39.666 -58.107)" fill="none" stroke="#00dfa2" stroke-linecap="round" stroke-linejoin="round" stroke-width="4"/>
          <line id="Line_1" data-name="Line 1" x1="25.003" y2="32.271" transform="translate(21.805 6.251)" fill="none" stroke="#00dfa2" stroke-linecap="round" stroke-linejoin="round" stroke-width="4"/>
        </g>
        <path id="Path_3" data-name="Path 3" d="M3.449,134.964c-1.018-.291-1.744-2.18-1.308-3.634L34.7,20.272a2.762,2.762,0,0,1,3.489-2.035L219.024,71.149a3.053,3.053,0,0,1,2.035,3.634L187.625,188.749Z" transform="translate(-2.011 -18.12)" fill="none" stroke="#00dfa2" stroke-linecap="round" stroke-linejoin="round" stroke-width="4"/>
      </g>
      <path id="Path_4" data-name="Path 4" d="M2.2,98.2l13.374,56.256a4.216,4.216,0,0,0,2.617,2.762l175.891,51.459a3.634,3.634,0,0,0,4.652-4.361l-11.338-51.9Z" transform="translate(-1.926 18.208)" fill="none" stroke="#00dfa2" stroke-linecap="round" stroke-linejoin="round" stroke-width="4"/>
      <path id="Path_5" data-name="Path 5" d="M20.8,113.9l2.035,10.03,11.338,3.343-2.035-10.03Z" transform="translate(6.512 25.331)" fill="none" stroke="#00dfa2" stroke-linecap="round" stroke-linejoin="round" stroke-width="4"/>
      <path id="Path_6" data-name="Path 6" d="M37.8,118.9l2.035,10.03,11.484,3.343-2.18-10.03Z" transform="translate(14.224 27.599)" fill="none" stroke="#00dfa2" stroke-linecap="round" stroke-linejoin="round" stroke-width="4"/>
      <path id="Path_7" data-name="Path 7" d="M54.9,123.9l2.035,10.03,11.338,3.343-2.035-10.03Z" transform="translate(21.982 29.867)" fill="none" stroke="#00dfa2" stroke-linecap="round" stroke-linejoin="round" stroke-width="4"/>
      <path id="Path_8" data-name="Path 8" d="M71.9,128.9l2.035,10.03,11.338,3.343-2.035-10.03Z" transform="translate(29.693 32.135)" fill="none" stroke="#00dfa2" stroke-linecap="round" stroke-linejoin="round" stroke-width="4"/>
      <path id="Path_9" data-name="Path 9" d="M88.9,133.9l2.18,10.03,11.338,3.2-2.035-9.885Z" transform="translate(37.405 34.404)" fill="none" stroke="#00dfa2" stroke-linecap="round" stroke-linejoin="round" stroke-width="4"/>
      <path id="Path_10" data-name="Path 10" d="M106,138.9l2.035,10.03,11.338,3.2-2.035-9.885Z" transform="translate(45.163 36.672)" fill="none" stroke="#00dfa2" stroke-linecap="round" stroke-linejoin="round" stroke-width="4"/>
      <path id="Path_11" data-name="Path 11" d="M13.8,124.381c-.872-.145-1.6-1.744-1.163-2.907L39.678,29.022a2.617,2.617,0,0,1,3.053-1.6L199.579,73.358a2.471,2.471,0,0,1,1.744,3.053l-27.765,94.778Z" transform="translate(2.752 -13.932)" fill="none" stroke="#00dfa2" stroke-linecap="round" stroke-linejoin="round" stroke-width="4"/>
    </g>
    <g id="astronauta" transform="translate(55.155 2.002)">
      <path id="Path_12" data-name="Path 12" d="M398.01,96.34c4.652-38.376-14.536-72.537-51.9-87.8A87.364,87.364,0,0,0,232,56.511c-18.316,44.772-.145,87.655,44.627,105.971,38.522,15.7,83.73,9.739,106.843-21.369" transform="translate(45.977 -2.002)" fill="none" stroke="#00dfa2" stroke-linecap="round" stroke-linejoin="round" stroke-width="4"/>
      <path id="Path_13" data-name="Path 13" d="M226.427,68.787c2.471,19.333,16.717,34.451,43.464,45.644,20.642,8.576,63.088,11.338,79.224,3.634,10.466-5.088,16.426-31.253,11.484-40.847-7.559-14.973-34.887-26.892-56.692-35.614-24.567-9.594-55.093-12.5-68.176-3.779C229.625,41.894,225.7,62.391,226.427,68.787Z" transform="translate(46.611 11.887)" fill="none" stroke="#00dfa2" stroke-linecap="round" stroke-linejoin="round" stroke-width="4"/>
      <path id="Path_14" data-name="Path 14" d="M273.6,90.778c15.409,3.053,34.306,3.2,43.319-1.018,5.088-2.471,9.885-12.065,10.466-20.06" transform="translate(68.05 28.708)" fill="none" stroke="#00dfa2" stroke-linecap="round" stroke-linejoin="round" stroke-width="4"/>
      <path id="Path_15" data-name="Path 15" d="M83.7,466.861c8.286-27.765,8-109.023,31.689-135.625,26.311-29.509,93.324-42.3,124.141-98.121,24.276-44.191,37.068-99.865,42.01-124.868a5.378,5.378,0,0,1,9.449-2.326c7.268,8.867,21.078,21.659,45.935,33.434,40.7,19.043,92.452,4.942,92.452,4.942,31.835,19.188,50.3,82.276,45.644,135.916-3.925,47.825-14.246,62.361-14.246,62.361s-38.812-13.228-36.486-16.281c0,0,5.524-14.1,4.216-47.825-1.89-47.825-18.607-66.722-18.607-66.722s-4.8,41.574-35.469,100.738C345.5,368.013,259.591,427.612,259.591,427.612l28.491,56.837" transform="translate(-18.097 44.237)" fill="none" stroke="#00dfa2" stroke-linecap="round" stroke-linejoin="round" stroke-width="4"/>
      <path id="Path_16" data-name="Path 16" d="M242.956,444.984c-14.1-18.171-70.356-80.823-60.762-104.226,7.85-19.333,49.424-82.858,49.424-82.858l-15.263,23.258c-17.153,11.048-59.163,24.276-66.432,30.236S113,409.951,113,409.951" transform="translate(-4.805 114.084)" fill="none" stroke="#00dfa2" stroke-linecap="round" stroke-linejoin="round" stroke-width="4"/>
      <path id="Path_17" data-name="Path 17" d="M359.766,93.4c-3.779,12.356-12.937,19.333-22.968,16.281s-13.955-11.775-10.03-24.13,14.1-21.514,24.13-18.461S363.691,81.04,359.766,93.4Z" transform="translate(91.489 27.254)" fill="none" stroke="#00dfa2" stroke-linecap="round" stroke-linejoin="round" stroke-width="4"/>
      <path id="Path_18" data-name="Path 18" d="M243.956,406.888c2.035,7.268-.145,13.519-5.96,15.118s-10.321-1.308-12.356-8.431,0-14.973,5.815-16.572S241.92,399.765,243.956,406.888Z" transform="translate(45.945 177.038)" fill="none" stroke="#00dfa2" stroke-linecap="round" stroke-linejoin="round" stroke-width="4"/>
      <path id="Path_19" data-name="Path 19" d="M324.466,257.9s-10.9,4.506-17.444,12.937-8.722,19.915-3.78,21.659c8,2.762,14.246-10.612,20.06-10.612s4.942,7.7-.145,13.228-19.915,15.554-20.06,21.95,9.158,8.867,20.787-.872" transform="translate(80.272 114.084)" fill="none" stroke="#00dfa2" stroke-linecap="round" stroke-linejoin="round" stroke-width="4"/>
      <path id="Path_20" data-name="Path 20" d="M353.5,268.3s4.07,23.84-1.744,32.852-14.827,28.2-32.852,24.13" transform="translate(88.6 118.802)" fill="none" stroke="#00dfa2" stroke-linecap="round" stroke-linejoin="round" stroke-width="4"/>
      <path id="Path_21" data-name="Path 21" d="M307.3,306.152s5.815,9.3,16.862,2.326a115.411,115.411,0,0,0,10.176-6.977" transform="translate(83.338 133.863)" fill="none" stroke="#00dfa2" stroke-linecap="round" stroke-linejoin="round" stroke-width="4"/>
      <path id="Path_22" data-name="Path 22" d="M319.9,110.3,345.63,126a15.99,15.99,0,0,1,7.268,17.3l-5.815,23.258" transform="translate(89.054 47.126)" fill="none" stroke="#00dfa2" stroke-linecap="round" stroke-linejoin="round" stroke-width="4"/>
      <path id="Path_23" data-name="Path 23" d="M237.422,365.7s9.885,24.712,19.624,35.178,13.81,16.862,14.536,22.968c1.454,10.321-34.161,59.6-50.3,65.269-11.92,4.07-20.932-3.489-24.712-7.7a3.925,3.925,0,0,1-.581-4.942c4.652-8.431,19.624-35.76,19.479-45.935s-9.885-34.451-9.885-34.451S226.084,389.976,237.422,365.7Z" transform="translate(32.563 162.987)" fill="none" stroke="#00dfa2" stroke-linecap="round" stroke-linejoin="round" stroke-width="4"/>
      <path id="Path_24" data-name="Path 24" d="M151.416,353.669s-8.286,24.567-9.885,38.812-3.779,21.369-7.85,26.02c-6.978,7.85-68.612,14.827-83.294,6.105-11.193-6.4-12.065-20.206-11.775-26.6a4.07,4.07,0,0,1,3.489-3.779c10.176-1.6,42.156-7.268,49.86-13.955S106.063,348,106.063,348A58.291,58.291,0,0,0,151.416,353.669Z" transform="translate(-38.57 154.957)" fill="none" stroke="#00dfa2" stroke-linecap="round" stroke-linejoin="round" stroke-width="4"/>
      <path id="Path_25" data-name="Path 25" d="M293.9,234.936l7.123,4.942a11.775,11.775,0,0,0,17.735-5.524L329.95,204.7" transform="translate(77.259 89.95)" fill="none" stroke="#00dfa2" stroke-linecap="round" stroke-linejoin="round" stroke-width="4"/>
      <path id="Path_26" data-name="Path 26" d="M231.542,137.7s-3.343,29.8-4.942,29.8l60.472,26.6a78.5,78.5,0,0,0,17.3-26.6S263.813,162.557,231.542,137.7Z" transform="translate(46.729 59.556)" fill="none" stroke="#00dfa2" stroke-linecap="round" stroke-linejoin="round" stroke-width="4"/>
      <path id="Path_27" data-name="Path 27" d="M266.007,290.855s-15.554-1.744-36.341-13.955L219.2,290.564l32.271,15.409" transform="translate(43.372 122.703)" fill="none" stroke="#00dfa2" stroke-linecap="round" stroke-linejoin="round" stroke-width="4"/>
      <path id="Path_28" data-name="Path 28" d="M182.2,207.8s8.14,18.171,42.592,46.662,87.219,36.632,87.219,36.632" transform="translate(26.587 91.357)" fill="none" stroke="#00dfa2" stroke-linecap="round" stroke-linejoin="round" stroke-width="4"/>
      <path id="Path_29" data-name="Path 29" d="M188,199.4s14.391,26.311,49.715,44.918C277.4,265.25,324.5,268.012,324.5,268.012" transform="translate(29.218 87.546)" fill="none" stroke="#00dfa2" stroke-linecap="round" stroke-linejoin="round" stroke-width="4"/>
      <path id="Path_30" data-name="Path 30" d="M308.586,199.149s-9.739-43.028,19.479-67.449l17.3,16.135s-24.421,21.514-30.527,61.78Z" transform="translate(83.214 56.834)" fill="none" stroke="#00dfa2" stroke-linecap="round" stroke-linejoin="round" stroke-width="4"/>
      <path id="Path_31" data-name="Path 31" d="M234.018,128.04s16.281,23.113,7.123,49.279c0,0-16.426,14.246-49.715,20.787-21.659,4.361-52.186-6.832-52.186-6.832L131.1,156.1s29.654,4.942,52.477-3.78c44.482-17.3,79.078-48.116,79.078-48.116" transform="translate(3.406 44.359)" fill="none" stroke="#00dfa2" stroke-linecap="round" stroke-linejoin="round" stroke-width="4"/>
      <path id="Path_32" data-name="Path 32" d="M243.144,94.3l-13.083-3.489a9.885,9.885,0,0,0-12.211,7.123L211.6,121.919" transform="translate(39.924 38.124)" fill="none" stroke="#00dfa2" stroke-linecap="round" stroke-linejoin="round" stroke-width="4"/>
      <path id="Path_33" data-name="Path 33" d="M192.4,383.736s26.747-8.14,37.5-30.236" transform="translate(31.214 157.453)" fill="none" stroke="#00dfa2" stroke-linecap="round" stroke-linejoin="round" stroke-width="4"/>
      <path id="Path_34" data-name="Path 34" d="M87.7,333.9s18.171,13.955,49.133,8.867" transform="translate(-16.282 148.561)" fill="none" stroke="#00dfa2" stroke-linecap="round" stroke-linejoin="round" stroke-width="4"/>
      <path id="Path_35" data-name="Path 35" d="M106.831,353.5s-9.739,23.694-10.03,30.236,18.316,6.251,18.316,6.251" transform="translate(-12.155 157.453)" fill="none" stroke="#00dfa2" stroke-linecap="round" stroke-linejoin="round" stroke-width="4"/>
      <path id="Path_36" data-name="Path 36" d="M122.244,170.68s-11.629,11.484-20.642,9.739-22.1-7.414-27.765-9.739S60.9,152.8,60.9,152.8" transform="translate(-28.44 66.406)" fill="none" stroke="#00dfa2" stroke-linecap="round" stroke-linejoin="round" stroke-width="4"/>
    </g>
  </g>
</svg>
