<svg xmlns="http://www.w3.org/2000/svg" width="26.999" height="27" viewBox="0 0 26.999 27">
  <path id="Icon_awesome-drafting-compass" data-name="Icon awesome-drafting-compass" d="M24.1,18.162a16.707,16.707,0,0,1-4.353,2.587l2.868,4.967,2.845,1.215a.844.844,0,0,0,1.169-.675L27,23.184l-2.9-5.022Zm2.241-4.986A.846.846,0,0,0,26.021,12l-1.48-.821a.845.845,0,0,0-1.121.3,11.824,11.824,0,0,1-9.92,5.4,11.726,11.726,0,0,1-3.66-.608l3.552-6.153c.037,0,.071.011.108.011s.071-.01.108-.011L16.3,14.781a10.045,10.045,0,0,0,4.356-2.58L17.926,7.47a5,5,0,0,0,.636-2.408,5.062,5.062,0,1,0-10.125,0A5,5,0,0,0,9.073,7.47l-3.6,6.239A11.79,11.79,0,0,1,3.7,11.653a.846.846,0,0,0-1.127-.281L1.1,12.219a.846.846,0,0,0-.3,1.185,15.131,15.131,0,0,0,2.952,3.271L0,23.185l.37,3.072a.844.844,0,0,0,1.169.675l2.845-1.215L8.118,19.25a15.137,15.137,0,0,0,5.382,1A15.209,15.209,0,0,0,26.34,13.176ZM13.5,3.375a1.687,1.687,0,1,1-1.687,1.687A1.688,1.688,0,0,1,13.5,3.375Z" fill="#0fd1b9"/>
</svg>
