<svg id="Group_528" data-name="Group 528" xmlns="http://www.w3.org/2000/svg" width="24.136" height="28.963" viewBox="0 0 24.136 28.963">
  <path id="Path_936" data-name="Path 936" d="M19.068,37.627C12.411,37.627,7,32.529,7,26.258A11.608,11.608,0,0,1,17.62,14.977a12.257,12.257,0,0,1,3.06,0,12.425,12.425,0,0,1,6.053,2.476,6.309,6.309,0,0,1,.531.444,10.852,10.852,0,0,1,1.612,1.7l.092.121h0a10.856,10.856,0,0,1,2.167,6.536C31.136,32.529,25.725,37.627,19.068,37.627Zm0-21.776a11.437,11.437,0,0,0-1.356.082A10.667,10.667,0,0,0,7.965,26.258c0,5.735,4.982,10.4,11.1,10.4s11.1-4.668,11.1-10.4a9.886,9.886,0,0,0-1.994-5.947L28.09,20.2a10.137,10.137,0,0,0-1.482-1.564,5.887,5.887,0,0,0-.483-.4,11.489,11.489,0,0,0-5.585-2.288A11.726,11.726,0,0,0,19.068,15.851Zm0,18.879c-5.059,0-9.172-3.8-9.172-8.472s4.113-8.477,9.172-8.477,9.172,3.8,9.172,8.477S24.127,34.73,19.068,34.73Zm0-15.983c-4.523,0-8.206,3.379-8.206,7.511s3.683,7.506,8.206,7.506,8.206-3.379,8.206-7.506S23.591,18.747,19.068,18.747Z" transform="translate(-7 -8.663)" fill="#fff"/>
  <path id="Path_937" data-name="Path 937" d="M22.172,37.838c-5.059,0-9.172-3.8-9.172-8.472s4.113-8.477,9.172-8.477,9.172,3.8,9.172,8.477S27.231,37.838,22.172,37.838Zm0-15.983c-4.523,0-8.206,3.379-8.206,7.511s3.683,7.506,8.206,7.506,8.206-3.379,8.206-7.506S26.695,21.855,22.172,21.855Z" transform="translate(-10.104 -11.771)" fill="#fff"/>
  <path id="Path_938" data-name="Path 938" d="M22.172,37.838c-5.059,0-9.172-3.8-9.172-8.472s4.113-8.477,9.172-8.477,9.172,3.8,9.172,8.477S27.231,37.838,22.172,37.838Zm0-15.983c-4.523,0-8.206,3.379-8.206,7.511s3.683,7.506,8.206,7.506,8.206-3.379,8.206-7.506S26.695,21.855,22.172,21.855Z" transform="translate(-10.104 -11.771)" fill="#fff"/>
  <path id="Path_939" data-name="Path 939" d="M30.1,6.764H23.5a1.7,1.7,0,0,1-1.7-1.7V3.675A1.68,1.68,0,0,1,23.475,2h6.512a1.68,1.68,0,0,1,1.675,1.675V5.191A1.574,1.574,0,0,1,30.1,6.764Zm-6.628-3.8a.71.71,0,0,0-.71.71V5.06A.743.743,0,0,0,23.5,5.8h6.6a.608.608,0,0,0,.608-.608V3.675a.71.71,0,0,0-.724-.71Z" transform="translate(-14.656 -2)" fill="#fff"/>
  <path id="Path_940" data-name="Path 940" d="M31.481,13.371h-.087a9.819,9.819,0,0,0-2.814,0,.483.483,0,0,1-.55-.478v-2.51a.483.483,0,0,1,.483-.483h2.949a.483.483,0,0,1,.483.483V12.9a.456.456,0,0,1-.463.468Zm-1.535-1.076A7.715,7.715,0,0,1,31,12.343V10.851H29.015v1.511A5.466,5.466,0,0,1,29.946,12.294Z" transform="translate(-17.878 -6.086)" fill="#fff"/>
  <path id="Path_941" data-name="Path 941" d="M49.393,21.669H49.36a.483.483,0,0,1-.352-.193l-.087-.116A10.137,10.137,0,0,0,47.438,19.8a.485.485,0,0,1-.029-.71l1.554-1.535a1.448,1.448,0,0,1,2.037,0l.3.3h0a1.511,1.511,0,0,1,0,2.134l-1.554,1.559A.483.483,0,0,1,49.393,21.669Zm-.965-2.259a11.272,11.272,0,0,1,.965,1.048l1.173-1.168a.545.545,0,0,0,0-.772l-.3-.3a.483.483,0,0,0-.666,0Z" transform="translate(-27.83 -9.828)" fill="#fff"/>
</svg>
