<svg xmlns="http://www.w3.org/2000/svg" width="150" height="150" viewBox="0 0 150 150">
  <g id="Group_170" data-name="Group 170" transform="translate(-599.543 -329.613)">
    <path id="Path_463" data-name="Path 463" d="M625.543,419.671l13.168-22.461,27.091-3.151-10.715,18.276-14.459-2.226L630.3,422.017Z" transform="translate(0 -12.04)" fill="none" stroke="#5aceb8" stroke-linecap="round" stroke-linejoin="round" stroke-width="3"/>
    <path id="Path_464" data-name="Path 464" d="M718.7,468.713l13.168-22.461-10.482-25.179-10.715,18.276,9,11.53-5.345,14.831Z" transform="translate(-20.729 -18.618)" fill="none" stroke="#5aceb8" stroke-linecap="round" stroke-linejoin="round" stroke-width="3"/>
    <circle id="Ellipse_137" data-name="Ellipse 137" cx="8.673" cy="8.673" r="8.673" transform="translate(682.97 369.214)" stroke-width="3" stroke="#5aceb8" stroke-linecap="round" stroke-linejoin="round" fill="none"/>
    <path id="Path_465" data-name="Path 465" d="M673.848,438.943l-14.561-8.536.595-20.786a23.932,23.932,0,0,1,2.965-8.036l15.421-26.3c6.134-10.463,18.035-18.376,36.212-30.669h0l7.281,4.267v0c-1.614,20.585-2.945,36.113-9.077,46.572l-15.423,26.306a23.915,23.915,0,0,1-5.563,6.511Z" transform="translate(-8.217)" fill="none" stroke="#5aceb8" stroke-linecap="round" stroke-linejoin="round" stroke-width="3"/>
    <line id="Line_9" data-name="Line 9" x2="21.723" y2="12.736" transform="translate(690.05 355.711)" fill="none" stroke="#5aceb8" stroke-linecap="round" stroke-linejoin="round" stroke-width="3"/>
    <line id="Line_10" data-name="Line 10" x2="32.996" y2="19.345" transform="translate(653.085 405.843)" fill="none" stroke="#5aceb8" stroke-linecap="round" stroke-linejoin="round" stroke-width="3"/>
    <line id="Line_11" data-name="Line 11" y1="28.151" x2="16.504" transform="translate(663.509 397.725)" fill="none" stroke="#5aceb8" stroke-linecap="round" stroke-linejoin="round" stroke-width="3"/>
    <line id="Line_12" data-name="Line 12" y1="21.69" x2="12.716" transform="translate(641.764 439.852)" fill="none" stroke="#5aceb8" stroke-linecap="round" stroke-linejoin="round" stroke-width="3"/>
    <line id="Line_13" data-name="Line 13" y1="13.614" x2="7.981" transform="translate(638.012 435.7)" fill="none" stroke="#5aceb8" stroke-linecap="round" stroke-linejoin="round" stroke-width="3"/>
    <line id="Line_14" data-name="Line 14" y1="13.614" x2="7.981" transform="translate(655.769 444.067)" fill="none" stroke="#5aceb8" stroke-linecap="round" stroke-linejoin="round" stroke-width="3"/>
    <rect id="Rectangle_1185" data-name="Rectangle 1185" width="150" height="150" transform="translate(599.543 329.613)" fill="none"/>
  </g>
</svg>
