<svg xmlns="http://www.w3.org/2000/svg" width="19.55" height="27.305" viewBox="0 0 19.55 27.305">
  <path id="Path_1010" data-name="Path 1010" d="M46.115,19.555a.755.755,0,0,0-.832,0c-1.247.707-5.322,2.245-8.025.083a7.588,7.588,0,0,0-6.653-1.372,11.881,11.881,0,0,0-3.243,1.289.848.848,0,0,0-.374.832V44.5a.832.832,0,0,0,1.663,0V34.191c1.164-.624,4.74-2.162,7.567.166a7.077,7.077,0,0,0,4.49,1.455,11.892,11.892,0,0,0,5.073-1.247.851.851,0,0,0,.748-.832V20.262a.8.8,0,0,0-.416-.707ZM37.3,33.068A7.588,7.588,0,0,0,30.648,31.7a8.906,8.906,0,0,0-1.954.665v-11.6a8.677,8.677,0,0,1,2.37-.873,5.906,5.906,0,0,1,5.2,1.039c2.744,2.2,6.445,1.5,8.648.665V33.234c-1.622.707-5.2,1.788-7.609-.166Z" transform="translate(-26.981 -18.029)" fill="#fff"/>
</svg>
