<svg width="85" height="85" viewBox="0 0 85 85" fill="none" xmlns="http://www.w3.org/2000/svg">
<g clip-path="url(#clip0)">
<path d="M70.3253 67.7632C69.975 67.1696 69.2097 66.9727 68.6158 67.3227C68.0223 67.673 67.8249 68.4385 68.1755 69.0321L77.0057 83.9928C77.2385 84.3875 77.6546 84.6068 78.0818 84.6068C78.2975 84.6068 78.5159 84.5509 78.7153 84.4334C79.3088 84.083 79.5062 83.3176 79.1557 82.7239L70.3253 67.7632Z" fill="#24BCAB"/>
<path d="M84.8266 63.9485L71.6088 41.554C70.4809 39.6429 68.4826 38.502 66.2636 38.502C64.0446 38.502 62.0464 39.6429 60.9185 41.554L57.8874 46.6895L50.2082 33.6791C48.6276 31.0008 45.8271 29.4019 42.7171 29.4019C39.6071 29.4019 36.8067 31.0008 35.226 33.6791L27.3298 47.0573L24.0815 41.554C22.9536 39.6429 20.9554 38.502 18.7365 38.502C16.5174 38.502 14.5192 39.6429 13.3912 41.554L0.173432 63.9485C-0.176914 64.5422 0.0203118 65.3076 0.61382 65.6579C0.813043 65.7755 1.03157 65.8314 1.24727 65.8314C1.67435 65.8314 2.09043 65.612 2.32344 65.2174L15.5412 42.8229C16.2155 41.6806 17.41 40.9986 18.7365 40.9986C20.063 40.9986 21.2573 41.6806 21.9315 42.823L25.8804 49.5132L6.27861 82.7237C5.92827 83.3174 6.12549 84.0828 6.719 84.4332C6.91822 84.5507 7.13675 84.6066 7.35245 84.6066C7.77953 84.6066 8.19561 84.3872 8.42862 83.9926L25.4594 55.1381L29.3311 54.2858C31.745 53.7543 34.2214 54.1955 36.3035 55.5282C38.2264 56.759 40.4303 57.3743 42.6341 57.3743C44.8378 57.3743 47.0418 56.759 48.9646 55.5282C51.0469 54.1955 53.5229 53.7545 55.9371 54.2858L59.9999 55.1802L65.4274 64.3757C65.7779 64.9696 66.5432 65.1666 67.1368 64.8163C67.7304 64.4659 67.9277 63.7005 67.5772 63.1068L59.3367 49.1452L63.0683 42.8227C63.7426 41.6805 64.9371 40.9984 66.2634 40.9984C67.59 40.9984 68.7844 41.6805 69.4586 42.8227L82.6764 65.2172C82.9092 65.6118 83.3253 65.8312 83.7526 65.8312C83.9683 65.8312 84.1866 65.7753 84.386 65.6578C84.9797 65.3074 85.1771 64.5422 84.8266 63.9485ZM56.4737 51.8476C53.4078 51.1724 50.263 51.7331 47.6188 53.4255C44.5909 55.3636 40.6773 55.3636 37.6493 53.4255C35.0052 51.7331 31.8604 51.1726 28.7945 51.8476L27.1937 52.2L37.3764 34.948C38.5033 33.0385 40.5002 31.8984 42.7175 31.8984C44.9347 31.8984 46.9314 33.0385 48.0585 34.948L58.266 52.2421L56.4737 51.8476Z" fill="#24BCAB"/>
<path d="M30.7338 12.997C31.2275 13.4784 32.0179 13.4679 32.4989 12.9742C32.98 12.4806 32.9699 11.6902 32.4761 11.2092L32.2331 10.9723L38.3704 10.0806C39.0634 9.97989 39.6622 9.54467 39.9716 8.91704L42.7163 3.3556L45.4608 8.91671C45.7704 9.54467 46.3692 9.97989 47.0625 10.0806L53.1998 10.9723L48.7586 15.3013C48.2571 15.7901 48.0284 16.494 48.1469 17.1839L49.1953 23.2964L43.7061 20.4104C43.0862 20.0847 42.3463 20.0847 41.7264 20.4104L36.2372 23.2964L37.2855 17.184C37.404 16.494 37.1754 15.7901 36.6739 15.3013L36.3167 14.9531C35.8226 14.4718 35.0327 14.482 34.5515 14.9758C34.0703 15.4694 34.0805 16.2597 34.5741 16.7408L34.7923 16.9535L33.6503 23.6126C33.5126 24.4165 33.8368 25.2136 34.4966 25.6929C35.1565 26.1722 36.0145 26.234 36.7365 25.8548L42.7167 22.7107L48.6968 25.8548C49.0109 26.0199 49.3506 26.1013 49.6886 26.1013C50.1277 26.1013 50.5639 25.9637 50.9367 25.6929C51.5965 25.2136 51.9207 24.4165 51.7829 23.6124L50.641 16.9535L55.4793 12.2374C56.0631 11.668 56.2692 10.8325 56.017 10.057C55.7649 9.28153 55.1071 8.72697 54.3002 8.6098L47.6142 7.63832L44.6238 1.57907C44.2628 0.847757 43.532 0.393555 42.7165 0.393555C41.901 0.393555 41.1701 0.847757 40.8091 1.57907L37.8191 7.63782L31.1331 8.6093C30.3261 8.72664 29.6683 9.2812 29.4163 10.0566C29.1642 10.8322 29.3704 11.6677 29.9544 12.2374L30.7338 12.997Z" fill="#24BCAB"/>
<path d="M59.7559 14.9697C59.7559 15.6591 60.3146 16.218 61.0041 16.218H63.7175C64.4071 16.218 64.9658 15.6591 64.9658 14.9697C64.9658 14.2803 64.4071 13.7214 63.7175 13.7214H61.0041C60.3146 13.7214 59.7559 14.2803 59.7559 14.9697Z" fill="#24BCAB"/>
<path d="M58.2007 5.81273C58.4425 5.81273 58.6872 5.74266 58.9022 5.59619L61.1449 4.06915C61.7148 3.68102 61.8621 2.9046 61.4741 2.3349C61.0862 1.76519 60.3096 1.61756 59.7397 2.00569L57.497 3.53273C56.9271 3.92069 56.7798 4.69728 57.1678 5.26698C57.4093 5.62166 57.8014 5.81273 58.2007 5.81273Z" fill="#24BCAB"/>
<path d="M57.4989 26.4068L59.7416 27.9341C59.9568 28.0805 60.2012 28.1506 60.4432 28.1506C60.8423 28.1506 61.2346 27.9597 61.4761 27.6048C61.864 27.0351 61.7167 26.2585 61.1469 25.8706L58.9041 24.3434C58.3339 23.9553 57.5577 24.1027 57.1697 24.6726C56.7818 25.2423 56.9291 26.0187 57.4989 26.4068Z" fill="#24BCAB"/>
<path d="M21.717 16.218H24.4304C25.1199 16.218 25.6787 15.6591 25.6787 14.9697C25.6787 14.2803 25.1199 13.7214 24.4304 13.7214H21.717C21.0275 13.7214 20.4688 14.2803 20.4688 14.9697C20.4688 15.6591 21.0276 16.218 21.717 16.218Z" fill="#24BCAB"/>
<path d="M24.2899 4.06903L26.5327 5.59607C26.7479 5.74253 26.9922 5.8126 27.2342 5.8126C27.6333 5.8126 28.0256 5.62154 28.2671 5.26686C28.655 4.69699 28.5077 3.92057 27.9379 3.53261L25.6952 2.00556C25.1251 1.61744 24.3487 1.76507 23.9607 2.33477C23.5728 2.90448 23.7201 3.6809 24.2899 4.06903Z" fill="#24BCAB"/>
<path d="M26.5307 24.3433L24.288 25.8705C23.7181 26.2587 23.5708 27.0351 23.9588 27.6048C24.2003 27.9596 24.5926 28.1505 24.9917 28.1505C25.2335 28.1505 25.4782 28.0805 25.6932 27.934L27.9359 26.4068C28.5058 26.0187 28.6531 25.2423 28.2651 24.6725C27.8773 24.1028 27.1007 23.9552 26.5307 24.3433Z" fill="#24BCAB"/>
</g>
<defs>
<clipPath id="clip0">
<rect width="85" height="85" fill="white"/>
</clipPath>
</defs>
</svg>
