<svg xmlns="http://www.w3.org/2000/svg" width="57.59" height="39.055" viewBox="0 0 57.59 39.055">
  <g id="noun_Conversation_232413" transform="translate(-229.377 -1174.799)">
    <g id="Group_529" data-name="Group 529" transform="translate(222 1153)">
      <path id="Path_1012" data-name="Path 1012" d="M61.359,46.259A18.158,18.158,0,0,0,36.172,23.735,18.162,18.162,0,0,0,10.984,46.26l-3.556,12.8a1.413,1.413,0,0,0,1.892,1.687l10.869-4.41a18.173,18.173,0,0,0,15.983-.166,18.17,18.17,0,0,0,15.983.166l10.868,4.411a1.413,1.413,0,0,0,1.893-1.687ZM28.014,55.285a15.148,15.148,0,0,1-7.108-1.746,1.409,1.409,0,0,0-1.214-.046l-8.772,3.56,2.913-10.488a1.413,1.413,0,0,0-.05-.9A15.335,15.335,0,0,1,33.274,25.554c-.066.05-.13.1-.195.155s-.112.087-.168.132c-.108.088-.214.177-.32.267-.039.033-.078.065-.116.1-.141.122-.281.245-.418.372-.041.037-.08.076-.121.113-.1.091-.193.182-.288.274-.053.051-.1.1-.155.155-.081.081-.162.162-.241.245l-.161.17c-.076.08-.151.162-.225.244l-.157.177c-.074.084-.147.169-.219.254-.049.058-.1.116-.147.175-.078.094-.153.188-.229.284-.041.051-.082.1-.122.153q-.169.218-.332.44c-.023.03-.044.063-.067.094q-.13.18-.255.363c-.041.059-.078.119-.118.178-.064.1-.128.193-.191.29-.042.066-.083.132-.124.2-.057.093-.115.186-.171.28l-.12.206c-.055.1-.109.19-.162.286-.038.068-.076.136-.112.2-.055.1-.108.205-.161.308-.032.064-.066.126-.1.188-.065.13-.127.261-.189.393-.018.038-.036.074-.053.111q-.116.25-.224.505c-.024.057-.047.115-.071.173-.047.115-.095.23-.14.347-.027.069-.053.138-.078.208q-.06.159-.117.32c-.026.073-.051.147-.076.22-.036.106-.071.212-.1.32-.024.073-.047.147-.069.22-.034.111-.066.223-.1.335-.02.069-.04.138-.059.207-.034.128-.067.257-.1.386-.014.053-.028.107-.041.16q-.065.273-.122.549c-.009.042-.016.086-.025.128-.028.143-.055.286-.08.428-.011.068-.022.136-.032.2-.02.12-.039.24-.055.36-.011.074-.02.149-.03.223-.015.116-.028.232-.041.348-.008.076-.016.151-.024.228-.011.118-.021.236-.03.354-.006.073-.011.146-.016.22-.008.128-.014.258-.02.387,0,.063-.006.125-.008.187-.006.192-.009.384-.009.577s0,.384.009.577c0,.063.005.125.008.186.005.129.011.259.02.388,0,.072.01.145.016.218q.013.179.03.357c.007.075.015.15.023.224.013.118.027.235.042.352.009.072.018.145.028.218.018.124.036.247.056.369.011.066.02.13.031.195.026.15.055.3.084.447.007.037.014.073.021.109.038.186.079.371.123.554.011.046.023.091.034.137.034.137.069.274.105.41.018.064.036.128.054.191.033.118.068.236.1.353.021.068.042.136.064.2q.054.17.111.339c.023.068.045.134.07.2.041.116.083.23.126.345.023.061.046.123.07.184q.076.195.156.386c.018.045.036.09.055.134q.11.261.229.519c.007.014.014.029.02.043.072.155.146.309.223.462.026.051.053.1.079.155.059.115.119.23.18.345.032.059.064.118.1.176.059.106.118.212.18.318.034.06.07.12.1.179.062.1.126.209.191.313l.105.168q.106.167.216.331l.093.138c.1.149.2.3.309.44l.013.018q.167.23.342.454c.03.039.06.076.091.113q.129.164.261.325l.126.149c.08.1.16.188.242.281.046.053.093.1.139.155q.122.135.245.268l.143.151c.086.091.175.18.264.268.045.045.089.091.134.134.105.1.213.2.321.305l.09.084c.14.128.282.255.426.38l.085.071q.173.148.351.292c.05.041.1.08.152.12l.205.163A15.376,15.376,0,0,1,28.014,55.285Zm10.777-4.432L38.637,51c-.068.066-.135.13-.2.195l-.163.147c-.069.062-.137.124-.207.184l-.17.145c-.07.059-.14.118-.211.176s-.118.1-.178.142-.143.112-.215.167l-.184.138c-.072.053-.145.107-.22.158s-.127.09-.191.133-.149.1-.225.152l-.2.128-.1.065-.1-.065-.2-.128c-.075-.05-.15-.1-.224-.152s-.128-.089-.191-.133-.146-.1-.218-.158l-.186-.138-.213-.166-.18-.144-.208-.173-.174-.149c-.069-.059-.136-.12-.2-.181s-.112-.1-.167-.151l-.2-.19c-.053-.051-.107-.1-.159-.154s-.131-.132-.2-.2c-.05-.051-.1-.1-.15-.155-.067-.07-.132-.142-.2-.213-.046-.05-.093-.1-.137-.151-.07-.078-.138-.158-.205-.238-.039-.046-.078-.091-.116-.136-.084-.1-.167-.205-.249-.309l-.061-.075c-.1-.129-.2-.261-.3-.393-.029-.04-.056-.08-.084-.12-.067-.094-.134-.187-.2-.282-.036-.053-.07-.107-.106-.161-.055-.083-.111-.166-.164-.25-.037-.059-.073-.119-.109-.178-.05-.08-.1-.16-.147-.242-.037-.062-.072-.126-.108-.188-.045-.079-.091-.159-.135-.239s-.07-.13-.1-.2-.084-.158-.125-.239l-.1-.2c-.039-.08-.078-.159-.116-.24s-.064-.138-.095-.207-.072-.161-.107-.243-.059-.14-.088-.211-.067-.163-.1-.245-.055-.142-.082-.213-.061-.166-.091-.249-.051-.145-.075-.216-.056-.168-.083-.252-.046-.147-.068-.219-.051-.17-.074-.255-.042-.148-.061-.222-.045-.173-.066-.259-.037-.148-.055-.223-.04-.175-.058-.263-.032-.149-.047-.223-.034-.179-.05-.268-.027-.148-.04-.222c-.015-.092-.028-.183-.042-.276-.011-.072-.022-.145-.032-.219-.013-.094-.023-.188-.034-.284-.008-.071-.017-.143-.024-.213-.01-.1-.018-.2-.026-.3-.005-.068-.012-.133-.016-.2-.007-.112-.012-.226-.017-.338,0-.055-.006-.111-.008-.167C29,40.294,29,40.125,29,39.955s0-.338.009-.507c0-.056.006-.111.008-.167,0-.112.009-.226.017-.338,0-.066.011-.132.016-.2.008-.1.016-.2.026-.3.007-.071.016-.143.024-.213.011-.1.021-.19.034-.284.009-.073.021-.146.032-.218.014-.093.027-.184.042-.276.013-.074.026-.148.04-.222.016-.09.032-.18.05-.268s.031-.149.047-.223.038-.176.058-.263.036-.149.055-.222.043-.173.066-.259.041-.148.061-.222.049-.17.074-.255.045-.147.068-.219.055-.168.083-.252.05-.145.075-.216.06-.166.091-.249.054-.143.082-.213.066-.163.1-.245l.088-.21c.035-.082.071-.162.107-.243s.062-.138.094-.207.077-.16.116-.24.066-.134.1-.2.083-.159.125-.239.069-.131.1-.2.09-.159.135-.239c.036-.064.071-.126.108-.188.048-.081.1-.161.148-.242.036-.059.072-.119.109-.177.054-.084.109-.168.165-.251.035-.053.07-.107.105-.159.066-.1.132-.19.2-.284l.083-.118q.145-.2.3-.393l.057-.072c.083-.1.166-.209.252-.312.038-.046.077-.09.115-.134.068-.08.136-.161.207-.24.045-.05.091-.1.136-.149.066-.072.13-.144.2-.215l.149-.153c.066-.068.13-.134.2-.2l.157-.153q.1-.1.2-.191l.166-.151.2-.182.173-.147c.069-.059.138-.117.208-.174s.12-.1.18-.143.141-.111.213-.166.123-.093.185-.138.145-.107.219-.159l.191-.133.225-.153.2-.127.1-.065c.034.021.07.042.1.065l.2.127c.076.05.151.1.225.153l.19.132c.074.053.147.105.22.159l.184.137.215.168c.059.047.119.094.178.142s.141.117.211.176l.171.146c.07.06.138.122.206.183l.163.149c.069.064.136.128.2.193.051.05.1.1.155.15.068.068.135.136.2.205.048.05.1.1.144.149.07.073.136.147.2.222.043.047.087.094.13.142.073.082.145.167.216.251l.106.124q.138.166.27.336l.039.048c.1.13.2.262.3.4l.07.1c.072.1.144.2.213.3.033.048.064.1.1.147.058.087.116.175.173.264.035.055.069.112.1.168.051.084.1.168.153.252.035.059.069.12.1.18.047.082.095.165.14.247l.1.189c.043.082.086.163.129.246l.1.2c.041.082.08.164.119.247.031.067.061.134.092.2s.074.165.11.248l.086.206c.034.083.068.166.1.251s.054.139.08.209.062.168.093.253.05.143.074.213.056.17.084.255.045.144.068.216.051.172.076.259.041.145.06.218.045.174.068.262.036.146.054.22.04.177.059.266.032.147.046.22c.018.09.034.181.051.271.014.073.027.146.039.22.016.092.028.184.043.277.011.072.022.144.032.216.013.1.023.191.034.287.008.07.017.141.024.211.01.1.018.2.026.3.005.066.011.132.016.2.007.112.012.226.017.338,0,.055.006.111.008.166.005.169.009.338.009.507s0,.338-.009.507c0,.056-.005.111-.008.167,0,.112-.009.226-.017.338,0,.066-.011.132-.016.2-.008.1-.016.2-.026.3-.007.071-.016.141-.024.211-.011.1-.022.191-.034.286-.01.073-.021.145-.032.217-.014.093-.027.185-.043.277-.012.074-.026.147-.039.22-.016.091-.032.181-.051.271-.014.073-.03.147-.046.22s-.039.177-.059.266-.035.147-.054.22-.044.175-.068.262-.04.145-.061.218-.049.172-.076.258-.045.144-.068.216-.055.17-.084.255-.049.143-.074.213-.061.168-.093.252-.053.14-.08.21-.067.167-.1.25-.057.138-.086.207-.072.165-.109.247-.061.136-.092.2c-.039.082-.078.164-.119.246-.032.066-.064.13-.1.2-.042.082-.085.164-.128.246-.033.064-.067.127-.1.188-.045.083-.093.165-.14.247-.034.06-.068.121-.1.18-.05.084-.1.168-.153.251-.034.056-.068.113-.1.168-.056.089-.114.176-.172.263l-.1.149c-.07.1-.142.2-.214.3-.024.033-.045.066-.07.1-.1.133-.2.266-.3.4-.012.014-.024.029-.036.045-.09.113-.18.227-.273.339-.034.041-.07.08-.1.122-.072.084-.143.17-.217.252-.042.048-.086.1-.129.141-.068.075-.136.151-.205.223-.047.05-.1.1-.143.148Q38.895,50.751,38.791,50.853Zm13.834,2.628a1.414,1.414,0,0,0-1.187.058,15.349,15.349,0,0,1-12.368.817l.2-.159c.053-.042.107-.083.159-.126.112-.091.222-.183.332-.276l.1-.088q.213-.184.42-.375l.115-.108c.1-.093.2-.184.294-.28.052-.05.1-.1.153-.153q.124-.123.244-.248c.054-.055.107-.112.159-.169q.115-.121.226-.245c.053-.058.105-.116.157-.176q.11-.126.219-.255c.049-.057.1-.116.147-.174.078-.094.153-.188.228-.284.041-.051.082-.1.122-.154.113-.145.224-.291.331-.439l.07-.1c.085-.118.169-.238.251-.357.041-.059.08-.12.12-.18.064-.1.127-.191.188-.288q.064-.1.126-.2c.057-.093.113-.184.169-.278.041-.07.082-.138.122-.208q.081-.141.16-.284c.039-.069.076-.137.113-.207.054-.1.107-.2.159-.3.033-.064.067-.128.1-.193q.094-.191.184-.382c.019-.041.039-.08.057-.122.077-.166.151-.334.222-.5.026-.059.049-.12.074-.18.047-.113.093-.226.137-.34.028-.07.054-.141.08-.212q.059-.157.115-.315c.026-.074.052-.149.077-.223.036-.1.07-.211.1-.316.024-.074.047-.149.07-.222.034-.11.066-.22.1-.331.02-.07.041-.141.059-.211.034-.127.067-.255.1-.382.014-.054.028-.109.041-.163q.065-.273.122-.548c.009-.043.017-.089.026-.132.028-.141.055-.282.08-.425.012-.068.022-.136.033-.2.019-.12.038-.239.055-.359.01-.074.02-.149.029-.224.015-.116.028-.231.041-.347.008-.076.016-.152.024-.228.011-.118.021-.236.03-.353.005-.074.011-.147.016-.22.008-.129.014-.258.02-.388,0-.062.006-.124.008-.187.006-.191.01-.383.01-.576s0-.384-.01-.577c0-.063-.005-.125-.008-.187-.005-.129-.011-.259-.02-.387,0-.074-.01-.147-.016-.22-.009-.118-.019-.237-.03-.354-.007-.076-.015-.152-.024-.227-.013-.117-.026-.233-.041-.349-.009-.074-.019-.149-.029-.223-.017-.12-.036-.241-.055-.361-.011-.068-.021-.135-.032-.2-.025-.145-.053-.288-.081-.431-.008-.042-.016-.084-.024-.127-.038-.183-.078-.367-.122-.549-.013-.053-.027-.1-.04-.156-.032-.13-.065-.261-.1-.39-.018-.069-.039-.137-.058-.206-.032-.113-.064-.226-.1-.338-.022-.072-.045-.145-.068-.216-.034-.108-.07-.216-.106-.323q-.036-.108-.075-.217c-.038-.108-.078-.216-.118-.324-.026-.069-.051-.137-.078-.206-.046-.118-.094-.234-.142-.351-.023-.056-.045-.113-.069-.169-.072-.17-.147-.339-.224-.507l-.049-.1c-.063-.134-.127-.268-.193-.4-.031-.061-.063-.123-.095-.183-.054-.105-.108-.21-.164-.314-.036-.067-.073-.133-.11-.2-.054-.1-.109-.195-.165-.292-.039-.068-.078-.134-.118-.2-.057-.1-.115-.191-.174-.286-.041-.065-.08-.13-.122-.194-.064-.1-.128-.2-.193-.3-.039-.058-.076-.116-.115-.173-.086-.126-.174-.251-.263-.375l-.058-.082c-.109-.149-.22-.3-.333-.443l-.118-.148c-.077-.1-.154-.194-.233-.289-.047-.058-.1-.115-.145-.172q-.109-.13-.222-.257l-.155-.174c-.075-.083-.151-.165-.227-.247l-.159-.168c-.08-.084-.162-.166-.244-.249-.051-.051-.1-.1-.153-.153-.1-.095-.194-.186-.292-.278l-.117-.111c-.138-.126-.277-.251-.419-.373-.037-.032-.075-.063-.113-.095q-.16-.137-.323-.269c-.055-.045-.11-.087-.166-.13s-.13-.1-.2-.155A15.336,15.336,0,0,1,58.558,45.659a1.413,1.413,0,0,0-.05.9L61.421,57.05Z" transform="translate(0)" fill="#13b5af"/>
    </g>
  </g>
</svg>
