<svg width="57" height="57" viewBox="0 0 57 57" fill="none" xmlns="http://www.w3.org/2000/svg">
<path d="M45.3149 42.8857C44.8096 42.5353 44.1159 42.6613 43.7658 43.1666C43.4264 43.6564 43.0419 44.1327 42.6223 44.5823C42.3412 44.8839 41.9545 45.2475 41.5336 45.6056C41.0654 46.0041 41.0088 46.7067 41.4073 47.1751C41.6275 47.4338 41.9407 47.5667 42.2557 47.5667C42.5108 47.5667 42.7672 47.4795 42.9768 47.3012C43.4677 46.8833 43.9085 46.4682 44.2507 46.1007C44.743 45.5733 45.1957 45.0127 45.596 44.4347C45.9461 43.9294 45.8203 43.2358 45.3149 42.8857Z" fill="#24BCAB"/>
<path d="M40.4647 47.8775C40.2035 47.3208 39.5409 47.0812 38.984 47.3423L38.9492 47.358C38.3866 47.6062 38.1319 48.2634 38.3803 48.826C38.564 49.2423 38.9717 49.49 39.3993 49.49C39.5495 49.49 39.7021 49.4594 39.8481 49.395C39.8753 49.3831 39.9023 49.3708 39.9293 49.3582C40.4859 49.0971 40.7256 48.4343 40.4647 47.8775Z" fill="#24BCAB"/>
<path d="M53.6741 2.89465H3.32592C1.49191 2.89465 0 4.38678 0 6.22057V37.4204C0 39.2541 1.49191 40.7461 3.32592 40.7461H26.77C27.7638 44.951 30.0112 47.929 31.9754 49.837C34.8423 52.6222 38.1287 54.1054 39.3988 54.1054C40.6689 54.1054 43.9553 52.6223 46.8223 49.8371C48.7865 47.929 51.0339 44.951 52.0277 40.7463H53.6741C55.508 40.7463 57 39.2542 57 37.4206V6.22057C57 4.38678 55.508 2.89465 53.6741 2.89465ZM50.3202 36.1837C50.3203 42.0493 47.6127 45.9401 45.3412 48.1713C42.6467 50.8179 39.8828 51.8473 39.3988 51.8786C38.9148 51.8473 36.1507 50.818 33.4563 48.1713C31.185 45.9401 28.4773 42.0493 28.4773 36.1837V30.7012C32.3104 29.5928 35.8969 28.0757 39.3992 26.082C42.8225 28.025 46.5698 29.6096 50.3202 30.7006V36.1837ZM54.7734 37.4204C54.7734 38.0265 54.2802 38.5196 53.6741 38.5196H52.4149C52.5001 37.7736 52.5469 36.9956 52.5469 36.1837V29.8572C52.5469 29.3546 52.2102 28.9145 51.7254 28.7828C47.6828 27.685 43.6147 25.9744 39.9612 23.8359C39.6138 23.6326 39.1839 23.6328 38.8363 23.8361C35.0792 26.0353 31.2312 27.6532 27.0723 28.7828C26.5874 28.9147 26.2508 29.3547 26.2508 29.8572V36.1837C26.2508 36.9956 26.2974 37.7736 26.3828 38.5196H3.32592C2.71974 38.5196 2.22656 38.0264 2.22656 37.4204V18.4803H54.7734V37.4204ZM54.7734 16.2539H2.22656V11.801H54.7734V16.2539ZM54.7734 9.57433H2.22656V6.22057C2.22656 5.61439 2.71974 5.12121 3.32592 5.12121H53.6741C54.2802 5.12121 54.7734 5.61439 54.7734 6.22057V9.57433Z" fill="#24BCAB"/>
<path d="M13.3589 26.2737C12.6877 26.2737 12.025 26.4095 11.4116 26.6682C10.8123 26.4142 10.1537 26.2737 9.46299 26.2737C6.70061 26.2737 4.45312 28.521 4.45312 31.2833C4.45312 34.0456 6.7005 36.293 9.46299 36.293C10.1537 36.293 10.8123 36.1525 11.4114 35.8986C12.025 36.1573 12.6877 36.293 13.3589 36.293C16.1214 36.293 18.3689 34.0456 18.3689 31.2833C18.3689 28.521 16.1214 26.2737 13.3589 26.2737ZM9.46299 34.0665C7.92822 34.0665 6.67968 32.818 6.67968 31.2833C6.67968 29.7486 7.92822 28.5003 9.46299 28.5003C10.9975 28.5003 12.2461 29.7486 12.2461 31.2833C12.2461 32.8179 10.9975 34.0665 9.46299 34.0665ZM13.6349 34.0529C14.1637 33.259 14.4726 32.3066 14.4726 31.2834C14.4726 30.2602 14.1637 29.308 13.635 28.5141C15.0405 28.653 16.1422 29.842 16.1422 31.2834C16.1422 32.7248 15.0405 33.9139 13.6349 34.0529Z" fill="#24BCAB"/>
<path d="M11.2925 21.2638H5.56616C4.9513 21.2638 4.45288 21.7622 4.45288 22.3771C4.45288 22.9918 4.9513 23.4904 5.56616 23.4904H11.2925C11.9074 23.4904 12.4058 22.9917 12.4058 22.3771C12.4058 21.7622 11.9074 21.2638 11.2925 21.2638Z" fill="#24BCAB"/>
<path d="M14.5835 21.2638H14.5308C13.9159 21.2638 13.4175 21.7622 13.4175 22.3771C13.4175 22.9918 13.9159 23.4904 14.5308 23.4904H14.5835C15.1983 23.4904 15.6968 22.9917 15.6968 22.3771C15.6968 21.7622 15.1983 21.2638 14.5835 21.2638Z" fill="#24BCAB"/>
<path d="M45.5098 33.6239C45.0753 33.1894 44.3705 33.1892 43.9355 33.6238L37.982 39.5768L34.8623 36.4569C34.4274 36.0225 33.7225 36.0222 33.2878 36.4569C32.853 36.8917 32.8529 37.5966 33.2878 38.0314L37.1948 41.9385C37.4122 42.156 37.6971 42.2647 37.982 42.2647C38.2669 42.2647 38.5519 42.156 38.7691 41.9385L45.5097 35.1984C45.9445 34.7638 45.9445 34.0589 45.5098 33.6239Z" fill="#24BCAB"/>
</svg>
