<svg width="29" height="28" viewBox="0 0 29 28" fill="none" xmlns="http://www.w3.org/2000/svg">
<path d="M17.0488 14C17.0488 15.3591 15.9076 16.4609 14.5 16.4609C13.0924 16.4609 11.9512 15.3591 11.9512 14C11.9512 12.6409 13.0924 11.5391 14.5 11.5391C15.9076 11.5391 17.0488 12.6409 17.0488 14Z" fill="white"/>
<path d="M18.8047 6.5625H10.1953C8.3213 6.5625 6.79688 8.03436 6.79688 9.84375V18.1562C6.79688 19.9656 8.3213 21.4375 10.1953 21.4375H18.8047C20.6787 21.4375 22.2031 19.9656 22.2031 18.1562V9.84375C22.2031 8.03436 20.6787 6.5625 18.8047 6.5625ZM14.5 18.1016C12.1576 18.1016 10.252 16.2616 10.252 14C10.252 11.7384 12.1576 9.89844 14.5 9.89844C16.8424 9.89844 18.748 11.7384 18.748 14C18.748 16.2616 16.8424 18.1016 14.5 18.1016ZM19.3711 10.1172C18.9018 10.1172 18.5215 9.74997 18.5215 9.29688C18.5215 8.84378 18.9018 8.47656 19.3711 8.47656C19.8404 8.47656 20.2207 8.84378 20.2207 9.29688C20.2207 9.74997 19.8404 10.1172 19.3711 10.1172Z" fill="white"/>
<path d="M21.3535 0H7.64648C3.4303 0 0 3.31201 0 7.38281V20.6172C0 24.688 3.4303 28 7.64648 28H21.3535C25.5697 28 29 24.688 29 20.6172V7.38281C29 3.31201 25.5697 0 21.3535 0ZM23.9023 18.1562C23.9023 20.8701 21.6155 23.0781 18.8047 23.0781H10.1953C7.38452 23.0781 5.09766 20.8701 5.09766 18.1562V9.84375C5.09766 7.12988 7.38452 4.92188 10.1953 4.92188H18.8047C21.6155 4.92188 23.9023 7.12988 23.9023 9.84375V18.1562Z" fill="white"/>
</svg>
