<svg width="28" height="28" viewBox="0 0 28 28" fill="none" xmlns="http://www.w3.org/2000/svg">
<path d="M25.2 0H2.8C1.26 0 0 1.26 0 2.8V25.2C0 26.74 1.26 28 2.8 28H25.2C26.74 28 28 26.74 28 25.2V2.8C28 1.26 26.74 0 25.2 0ZM8.4 23.8H4.2V11.2H8.4V23.8ZM6.3 8.82C4.9 8.82 3.78 7.7 3.78 6.3C3.78 4.9 4.9 3.78 6.3 3.78C7.7 3.78 8.82 4.9 8.82 6.3C8.82 7.7 7.7 8.82 6.3 8.82ZM23.8 23.8H19.6V16.38C19.6 15.2601 18.62 14.28 17.5 14.28C16.38 14.28 15.4 15.2601 15.4 16.38V23.8H11.2V11.2H15.4V12.88C16.1 11.76 17.64 10.92 18.9 10.92C21.56 10.92 23.8 13.16 23.8 15.82V23.8Z" fill="white"/>
</svg>
