<svg width="53" height="55" viewBox="0 0 53 55" fill="none" xmlns="http://www.w3.org/2000/svg">
<g clip-path="url(#clip0)">
<path d="M11.3186 15.625H27.6067C28.0358 15.625 28.3836 15.264 28.3836 14.8188C28.3836 14.3735 28.0358 14.0126 27.6067 14.0126H11.3186C10.8896 14.0126 10.5417 14.3735 10.5417 14.8188C10.5417 15.264 10.8896 15.625 11.3186 15.625Z" fill="#24BCAB" stroke="#24BCAB"/>
<path d="M0.776886 40.5197C1.20593 40.5197 1.55377 40.1587 1.55377 39.7135V22.6601H25.002C25.431 22.6601 25.7788 22.2992 25.7788 21.8539C25.7788 21.4087 25.431 21.0477 25.002 21.0477H1.55377V19.6253C1.55377 17.4195 3.28302 15.625 5.40858 15.625H8.00783C8.43688 15.625 8.78472 15.264 8.78472 14.8188C8.78472 14.3735 8.43688 14.0126 8.00783 14.0126H5.40858C2.42627 14.0126 0 16.5304 0 19.6253V39.7135C0 40.1588 0.347838 40.5197 0.776886 40.5197Z" fill="#24BCAB" stroke="#24BCAB" stroke-width="0.5"/>
<path d="M49.9775 33.0399C49.5485 33.0399 49.2006 33.4009 49.2006 33.8461V46.9189C49.2006 49.1246 47.4714 50.919 45.3459 50.919H5.40858C3.28302 50.9191 1.55377 49.1246 1.55377 46.9189V43.1493C1.55377 42.704 1.20593 42.3431 0.776886 42.3431C0.347838 42.3431 0 42.704 0 43.1493V46.9189C0 50.0137 2.42627 52.5314 5.40858 52.5314H45.3458C48.3281 52.5314 50.7543 50.0136 50.7543 46.9189V33.8461C50.7544 33.4009 50.4065 33.0399 49.9775 33.0399Z" fill="#24BCAB" stroke="#24BCAB" stroke-width="0.5"/>
<path d="M28.1848 22.2692C28.238 25.618 29.5359 28.775 31.8391 31.1588C34.1422 33.5423 37.188 34.8808 40.4153 34.9273C40.4747 34.9282 40.5338 34.9286 40.5931 34.9286C43.8758 34.9285 46.9635 33.6159 49.304 31.2205C51.6873 28.7813 52.9999 25.5253 52.9999 22.0519C52.9999 20.5787 52.761 19.1322 52.29 17.7524C52.1468 17.3327 51.7026 17.1129 51.2983 17.2617C50.8939 17.4103 50.6822 17.8711 50.8254 18.2908C51.2373 19.4972 51.446 20.7626 51.446 22.0519C51.446 25.0903 50.2978 27.9387 48.2129 30.0725C46.1284 32.2057 43.3693 33.36 40.4367 33.315C37.6156 33.2744 34.9518 32.1031 32.9361 30.0171C30.9205 27.9311 29.7848 25.17 29.7382 22.2425C29.6864 18.992 30.9895 15.8768 33.313 13.696C33.3736 13.6391 33.4533 13.6079 33.5378 13.6079H47.6448C47.7292 13.6079 47.8092 13.6392 47.8699 13.6962C48.4217 14.2141 48.9239 14.793 49.363 15.4167C49.6161 15.7762 50.1022 15.8549 50.4486 15.5921C50.7951 15.3295 50.8708 14.8251 50.6177 14.4656C50.1162 13.7531 49.5423 13.0919 48.9121 12.5004C48.5651 12.1748 48.115 11.9953 47.6448 11.9953H47.38V9.51332C47.38 5.62882 44.3346 2.46851 40.5913 2.46851C36.8479 2.46851 33.8025 5.62882 33.8025 9.51332V11.9953H33.5377C33.0674 11.9953 32.6174 12.1745 32.2706 12.5C29.615 14.993 28.1257 18.5536 28.1848 22.2692ZM42.7189 11.9955H38.4641V9.51343C38.4641 8.29617 39.4185 7.30583 40.5916 7.30583C41.7647 7.30583 42.719 8.29617 42.719 9.51343V11.9955H42.7189ZM35.3566 9.51332C35.3566 6.5179 37.705 4.08091 40.5916 4.08091C43.4782 4.08091 45.8265 6.5179 45.8265 9.51332V11.9953H44.2728V9.51332C44.2728 7.40698 42.6214 5.69332 40.5916 5.69332C38.5617 5.69332 36.9104 7.40698 36.9104 9.51332V11.9953H35.3566V9.51332Z" fill="#24BCAB" stroke="#24BCAB" stroke-width="0.5"/>
<path d="M4.95804 17.9056C4.52899 17.9056 4.18115 18.2666 4.18115 18.7118C4.18115 19.1571 4.52899 19.518 4.95804 19.518H5.607C6.03605 19.518 6.38388 19.1571 6.38388 18.7118C6.38388 18.2666 6.03605 17.9056 5.607 17.9056H4.95804Z" fill="#24BCAB" stroke="#24BCAB" stroke-width="0.5"/>
<path d="M8.23743 18.7118C8.23743 19.1571 8.58526 19.518 9.01431 19.518H9.66327C10.0923 19.518 10.4402 19.1571 10.4402 18.7118C10.4402 18.2666 10.0923 17.9056 9.66327 17.9056H9.01431C8.58526 17.9056 8.23743 18.2666 8.23743 18.7118Z" fill="#24BCAB" stroke="#24BCAB" stroke-width="0.5"/>
<path d="M13.0706 17.9056C12.6415 17.9056 12.2937 18.2666 12.2937 18.7118C12.2937 19.1571 12.6415 19.518 13.0706 19.518H13.7195C14.1486 19.518 14.4964 19.1571 14.4964 18.7118C14.4964 18.2666 14.1486 17.9056 13.7195 17.9056H13.0706Z" fill="#24BCAB" stroke="#24BCAB" stroke-width="0.5"/>
<path d="M16.8499 18.7118C16.8499 18.5251 16.9911 18.4056 17.1267 18.4056H25.002C25.1376 18.4056 25.2789 18.5251 25.2789 18.7118C25.2789 18.8986 25.1376 19.018 25.002 19.018H17.1267C16.9911 19.018 16.8499 18.8986 16.8499 18.7118Z" fill="#24BCAB" stroke="#24BCAB"/>
<path d="M37.5206 26.7688C37.8254 27.2007 38.2961 27.4484 38.8119 27.4484H42.3709C42.8868 27.4484 43.3574 27.2007 43.6622 26.7688C43.9669 26.3369 44.0525 25.7965 43.8968 25.2862L43.2067 23.0246C43.7323 22.3488 43.9943 21.4991 43.9449 20.6273C43.8455 18.8719 42.4953 17.466 40.8043 17.3572C39.8659 17.2967 38.9736 17.63 38.2911 18.2957C37.618 18.9522 37.2321 19.8782 37.2321 20.8364C37.2321 21.6315 37.4961 22.4072 37.9762 23.0245L37.286 25.2862C37.1304 25.7965 37.2159 26.3369 37.5206 26.7688ZM38.7674 25.7728L39.4714 23.4659C39.6222 22.9714 39.5195 22.4333 39.1966 22.0262C38.928 21.6877 38.7858 21.2761 38.7858 20.8364C38.7858 20.3138 38.988 19.8287 39.3552 19.4707C39.6936 19.1406 40.1288 18.9626 40.5912 18.9626C40.6301 18.9626 40.669 18.9639 40.7082 18.9664C41.601 19.0239 42.3414 19.795 42.3938 20.7218C42.4208 21.1985 42.2757 21.6622 41.9853 22.0275C41.6628 22.4331 41.5605 22.9706 41.7116 23.4657L42.4155 25.7727C42.418 25.781 42.4227 25.7962 42.4087 25.8161C42.3947 25.836 42.3793 25.836 42.371 25.836H38.812C38.8038 25.836 38.7883 25.836 38.7743 25.8161C38.7602 25.7963 38.7649 25.7811 38.7674 25.7728Z" fill="#24BCAB" stroke="#24BCAB" stroke-width="0.5"/>
<path d="M7.87714 28.67C7.87714 28.2247 7.5293 27.8638 7.10025 27.8638C6.6712 27.8638 6.32336 28.2247 6.32336 28.67V33.1905C6.32336 33.6357 6.6712 33.9967 7.10025 33.9967C7.5293 33.9967 7.87714 33.6357 7.87714 33.1905V28.67Z" fill="#24BCAB" stroke="#24BCAB" stroke-width="0.5"/>
<path d="M21.4796 28.67C21.4796 28.2247 21.1317 27.8638 20.7027 27.8638C20.2736 27.8638 19.9258 28.2247 19.9258 28.67V33.1905C19.9258 33.6357 20.2736 33.9967 20.7027 33.9967C21.1317 33.9967 21.4796 33.6357 21.4796 33.1905V28.67Z" fill="#24BCAB" stroke="#24BCAB" stroke-width="0.5"/>
<path d="M16.3562 30.4113C16.3562 29.0066 15.255 27.8638 13.9014 27.8638C12.5477 27.8638 11.4465 29.0065 11.4465 30.4113V31.4493C11.4465 32.8539 12.5477 33.9968 13.9014 33.9968C15.255 33.9968 16.3562 32.854 16.3562 31.4493V30.4113ZM14.8025 31.4493C14.8025 31.9649 14.3983 32.3844 13.9014 32.3844C13.4045 32.3844 13.0003 31.965 13.0003 31.4493V30.4113C13.0003 29.8957 13.4045 29.4762 13.9014 29.4762C14.3983 29.4762 14.8025 29.8956 14.8025 30.4113V31.4493Z" fill="#24BCAB" stroke="#24BCAB" stroke-width="0.5"/>
<path d="M7.10025 39.2005C6.6712 39.2005 6.32336 39.5615 6.32336 40.0067V44.5272C6.32336 44.9725 6.6712 45.3334 7.10025 45.3334C7.5293 45.3334 7.87714 44.9725 7.87714 44.5272V40.0067C7.87714 39.5614 7.5293 39.2005 7.10025 39.2005Z" fill="#24BCAB" stroke="#24BCAB" stroke-width="0.5"/>
<path d="M20.7027 39.2005C20.2736 39.2005 19.9258 39.5615 19.9258 40.0067V44.5272C19.9258 44.9725 20.2736 45.3334 20.7027 45.3334C21.1317 45.3334 21.4796 44.9725 21.4796 44.5272V40.0067C21.4796 39.5614 21.1317 39.2005 20.7027 39.2005Z" fill="#24BCAB" stroke="#24BCAB" stroke-width="0.5"/>
<path d="M13.9015 39.2005C12.548 39.2005 11.4467 40.3433 11.4467 41.748V42.7861C11.4467 44.1907 12.5479 45.3334 13.9015 45.3334C15.2552 45.3334 16.3564 44.1907 16.3564 42.7861V41.748C16.3563 40.3433 15.2551 39.2005 13.9015 39.2005ZM14.8025 42.786C14.8025 43.3015 14.3983 43.7209 13.9014 43.7209C13.4045 43.7209 13.0003 43.3015 13.0003 42.786V41.7479C13.0003 41.2323 13.4045 40.8128 13.9014 40.8128C14.3983 40.8128 14.8025 41.2322 14.8025 41.7479V42.786Z" fill="#24BCAB" stroke="#24BCAB" stroke-width="0.5"/>
<path d="M33.0795 40.0067V44.5272C33.0795 44.9725 33.4273 45.3334 33.8563 45.3334C34.2854 45.3334 34.6332 44.9725 34.6332 44.5272V40.0067C34.6332 39.5615 34.2854 39.2005 33.8563 39.2005C33.4273 39.2005 33.0795 39.5614 33.0795 40.0067Z" fill="#24BCAB" stroke="#24BCAB" stroke-width="0.5"/>
<path d="M24.6002 41.7479V42.7859C24.6002 44.1906 25.7014 45.3333 27.0551 45.3333C28.4087 45.3333 29.5099 44.1906 29.5099 42.7859V41.7479C29.5099 40.3433 28.4087 39.2004 27.0551 39.2004C25.7014 39.2004 24.6002 40.3433 24.6002 41.7479ZM27.9562 41.7479V42.7859C27.9562 43.3015 27.552 43.7209 27.0551 43.7209C26.5582 43.7209 26.154 43.3015 26.154 42.7859V41.7479C26.154 41.2323 26.5582 40.8128 27.0551 40.8128C27.552 40.8128 27.9562 41.2323 27.9562 41.7479Z" fill="#24BCAB" stroke="#24BCAB" stroke-width="0.5"/>
<path d="M38.2029 41.7479V42.7859C38.2029 44.1906 39.3041 45.3333 40.6577 45.3333C42.0114 45.3333 43.1126 44.1906 43.1126 42.7859V41.7479C43.1126 40.3433 42.0114 39.2004 40.6577 39.2004C39.3041 39.2004 38.2029 40.3433 38.2029 41.7479ZM41.5588 41.7479V42.7859C41.5588 43.3015 41.1546 43.7209 40.6577 43.7209C40.1608 43.7209 39.7567 43.3015 39.7567 42.7859V41.7479C39.7567 41.2323 40.1608 40.8128 40.6577 40.8128C41.1546 40.8128 41.5588 41.2323 41.5588 41.7479Z" fill="#24BCAB" stroke="#24BCAB" stroke-width="0.5"/>
</g>
<defs>
<clipPath id="clip0">
<rect width="53" height="55" fill="white"/>
</clipPath>
</defs>
</svg>
