<svg width="115" height="29" viewBox="0 0 115 29" fill="none" xmlns="http://www.w3.org/2000/svg">
<path d="M25.877 18.4507H25.8169L21.7464 6.81299H17.9783L23.8871 22.339L23.4954 23.5451C23.4069 23.8542 23.2961 24.1565 23.1639 24.4496C23.0532 24.6963 22.906 24.9251 22.7275 25.1282C22.549 25.3232 22.3266 25.4729 22.0787 25.5646C21.759 25.6749 21.422 25.7263 21.084 25.7164C20.8107 25.7165 20.5381 25.6911 20.2696 25.6405C20.0083 25.5899 19.7369 25.5446 19.4551 25.5047V28.399C20.2432 28.5199 21.0393 28.5805 21.8366 28.5802C22.6039 28.6081 23.3674 28.4588 24.0677 28.1438C24.6355 27.8641 25.1347 27.4629 25.53 26.9686C25.9379 26.4485 26.273 25.8751 26.5258 25.2643C26.7973 24.6215 27.0733 23.9485 27.3539 23.2453L33.4149 6.81375H29.8264L25.877 18.4507Z" fill="#27CCB8"/>
<path d="M42.8523 6.39202C41.8682 6.38171 40.8994 6.63691 40.0481 7.13076C39.2031 7.62437 38.4974 8.32466 37.9974 9.16588L37.938 9.10591V6.81462H34.682V22.8232H38.1185V13.2054C38.1152 12.6608 38.2067 12.1197 38.3889 11.6065C38.5577 11.1266 38.8135 10.6818 39.1433 10.2945C39.4676 9.9218 39.8691 9.62398 40.3198 9.42167C40.8131 9.20415 41.3478 9.09628 41.8868 9.10554C42.9125 9.10554 43.6662 9.38195 44.148 9.93477C44.6297 10.4876 44.8912 11.3768 44.9324 12.6023V22.8232H48.367V11.6978C48.367 9.93053 47.8744 8.60401 46.8894 7.71823C45.9043 6.83245 44.5586 6.39038 42.8523 6.39202Z" fill="#27CCB8"/>
<path d="M64.9403 20.1095C64.8181 20.1256 64.6938 20.109 64.5801 20.0612C64.4665 20.0135 64.3675 19.9365 64.2934 19.838C64.161 19.5561 64.1035 19.2448 64.1266 18.9342V10.9144C64.1499 10.1784 63.9615 9.45122 63.5839 8.81909C63.2228 8.24637 62.7326 7.76619 62.1526 7.41701C61.533 7.04503 60.8551 6.78015 60.1474 6.6335C59.4047 6.47311 58.6469 6.39278 57.8871 6.39385C57.0371 6.39148 56.189 6.47173 55.3546 6.6335C54.5708 6.77852 53.8198 7.06436 53.1379 7.47716C52.4845 7.87914 51.9326 8.42624 51.5249 9.07602C51.0739 9.83441 50.8246 10.6957 50.8008 11.5778H54.2373C54.2525 11.2049 54.3561 10.8409 54.5397 10.516C54.7233 10.1911 54.9815 9.91449 55.2931 9.70906C56.012 9.28216 56.8391 9.07271 57.6745 9.10602C58.0377 9.10769 58.4005 9.13259 58.7605 9.18058C59.1206 9.22503 59.4712 9.32683 59.799 9.4821C60.1092 9.63164 60.3783 9.8543 60.5833 10.1309C60.8046 10.4482 60.9157 10.8294 60.8996 11.2159C60.9154 11.4198 60.8902 11.6248 60.8256 11.8188C60.761 12.0128 60.6582 12.192 60.5233 12.3457C60.236 12.6177 59.8829 12.8104 59.4987 12.9049C59.0098 13.0356 58.51 13.1214 58.0055 13.1611C57.4087 13.2161 56.8151 13.3018 56.2271 13.4178C55.5037 13.4977 54.7847 13.6133 54.0699 13.7649C53.3902 13.9019 52.738 14.1512 52.1403 14.5028C51.5641 14.8483 51.0863 15.3361 50.7528 15.9194C50.3731 16.6436 50.1912 17.4553 50.2257 18.2724C50.2102 18.9659 50.3598 19.6531 50.6621 20.2775C50.9398 20.8341 51.3425 21.319 51.8386 21.6942C52.3508 22.0758 52.9277 22.3619 53.5415 22.5388C54.1976 22.7312 54.8781 22.8276 55.5618 22.825C56.5379 22.8162 57.5074 22.6636 58.4391 22.3722C59.3827 22.0999 60.2464 21.6033 60.9564 20.9247C60.9932 21.2213 61.093 21.5067 61.249 21.7616C61.405 22.0166 61.6136 22.2353 61.8609 22.4031C62.3935 22.7028 62.9987 22.8492 63.6093 22.8259C63.7503 22.8259 63.9213 22.8155 64.1217 22.7959C64.3241 22.7758 64.5254 22.7453 64.7247 22.7048C64.9259 22.6644 65.1217 22.6198 65.313 22.569C65.5042 22.5181 65.6593 22.4741 65.7796 22.4343V20.0519C65.6216 20.0899 65.46 20.1103 65.2976 20.113L64.9403 20.1095ZM60.6898 17.1551C60.7061 17.642 60.5694 18.1218 60.2989 18.527C60.0388 18.8973 59.7051 19.21 59.3186 19.4454C58.9329 19.6842 58.5103 19.8574 58.0679 19.9578C57.6628 20.0541 57.2481 20.1046 56.8316 20.1082C56.493 20.1056 56.1551 20.0754 55.8214 20.0179C55.4664 19.9621 55.1212 19.8554 54.7967 19.701C54.4899 19.5539 54.2177 19.3437 53.9977 19.0841C53.7735 18.8133 53.6559 18.4699 53.6669 18.1185C53.6557 17.7294 53.733 17.3428 53.8929 16.9879C54.0328 16.6892 54.2451 16.4303 54.5106 16.2346C54.7859 16.0362 55.0913 15.8834 55.4151 15.7818C55.7605 15.6709 56.1134 15.585 56.4711 15.5249C57.2341 15.3848 57.9975 15.2795 58.7615 15.2087C59.4456 15.1642 60.1083 14.9521 60.6911 14.5911L60.6898 17.1551Z" fill="#27CCB8"/>
<path d="M80.8144 8.82005C80.2032 8.05885 79.4238 7.44979 78.5374 7.04072C77.5286 6.58884 76.432 6.36729 75.3269 6.39214C74.3608 6.38437 73.4043 6.58501 72.5227 6.98038C71.6488 7.38163 70.9368 8.06736 70.5029 8.92556H70.4428V6.81566H67.1868V28.1613H70.6232V20.3813H70.6832C70.9428 20.8026 71.2742 21.1751 71.6625 21.4819C72.0536 21.7937 72.4844 22.0523 72.9436 22.2508C73.4076 22.4515 73.8933 22.598 74.391 22.6872C74.8883 22.7769 75.3926 22.8224 75.8979 22.8229C76.8837 22.8553 77.8624 22.6454 78.7482 22.2116C79.634 21.7778 80.3999 21.1334 80.9788 20.3348C81.5467 19.5482 81.9657 18.6642 82.215 17.7266C82.4873 16.7347 82.624 15.7106 82.6213 14.682C82.6293 13.5904 82.477 12.5035 82.1693 11.4561C81.8927 10.498 81.4326 9.60266 80.8144 8.82005ZM78.9603 16.6275C78.8213 17.2526 78.5654 17.8457 78.2063 18.3758C77.8575 18.8874 77.3994 19.3152 76.8651 19.6281C76.2581 19.9661 75.5708 20.133 74.8764 20.1111C74.2329 20.1247 73.5959 19.9798 73.0216 19.6892C72.4891 19.4073 72.0217 19.017 71.6494 18.5433C71.251 18.0281 70.959 17.4387 70.7904 16.8095C70.5943 16.0978 70.4977 15.3623 70.5035 14.6241C70.5035 12.9565 70.8704 11.62 71.6041 10.6146C72.3378 9.60912 73.4286 9.10651 74.8764 9.10677C75.5297 9.09397 76.1746 9.25528 76.7449 9.57414C77.2828 9.88099 77.7461 10.3032 78.1013 10.8104C78.4735 11.346 78.7491 11.9426 78.9157 12.5732C79.0969 13.2413 79.1882 13.9304 79.1873 14.6226C79.1877 15.2974 79.1113 15.9701 78.9596 16.6277L78.9603 16.6275Z" fill="#27CCB8"/>
<path d="M93.1891 9.37687L92.2115 6.81404H88.7716V3.77112H85.3351V6.8167H82.6882V9.37954H85.3351V18.5747C85.347 19.1523 85.4127 19.7275 85.5311 20.293C85.6229 20.7607 85.842 21.1941 86.1642 21.5453C86.5228 21.9053 86.9696 22.165 87.4598 22.2987C88.1724 22.4894 88.9089 22.576 89.6464 22.5556C90.0189 22.5559 90.3911 22.5355 90.7614 22.4945C91.123 22.4543 91.495 22.4145 91.8773 22.3751V19.7214C91.6406 19.7821 91.3982 19.8178 91.154 19.828C90.9126 19.8383 90.6712 19.8434 90.4297 19.8434C90.1226 19.8554 89.8159 19.809 89.5261 19.7068C89.3199 19.6295 89.1448 19.4867 89.0276 19.3003C88.9099 19.0973 88.838 18.8709 88.8171 18.6371C88.7847 18.3266 88.7697 18.0146 88.7724 17.7024V9.38107L93.1891 9.37687Z" fill="#27CCB8"/>
<path d="M98.4367 6.81409H95V22.4012H98.4367V6.81409Z" fill="#27CCB8"/>
<path d="M110.27 19.1748C109.937 19.487 109.547 19.7303 109.12 19.8907C108.693 20.0512 108.238 20.1255 107.783 20.1096C107.119 20.13 106.462 19.9687 105.883 19.643C105.368 19.3389 104.93 18.921 104.602 18.4213C104.26 17.8964 104.015 17.3144 103.879 16.7031C103.729 16.0706 103.652 15.4228 103.652 14.7727C103.62 13.7955 103.763 12.8205 104.075 11.8939C104.299 11.2519 104.658 10.6658 105.13 10.1757C105.516 9.78567 105.992 9.49605 106.516 9.33203C106.975 9.18835 107.452 9.11224 107.933 9.10604C108.793 9.07329 109.638 9.33383 110.331 9.84494C110.658 10.1151 110.929 10.4472 111.128 10.8222C111.327 11.1973 111.45 11.6079 111.49 12.0306H114.926C114.872 11.1533 114.624 10.2989 114.202 9.52806C113.814 8.84171 113.285 8.24571 112.65 7.77965C111.994 7.30722 111.259 6.95548 110.479 6.74093C109.64 6.5067 108.773 6.39014 107.902 6.39462C106.748 6.36793 105.602 6.58884 104.54 7.04245C103.619 7.44926 102.8 8.05715 102.144 8.82159C101.485 9.60308 100.992 10.5107 100.696 11.489C100.369 12.5534 100.206 13.6616 100.214 14.7752C100.204 15.8608 100.372 16.9407 100.711 17.972C101.017 18.913 101.515 19.7803 102.173 20.5193C102.832 21.245 103.639 21.8209 104.54 22.2081C105.565 22.6378 106.669 22.8483 107.78 22.8259C109.79 22.8259 111.403 22.2883 112.619 21.213C113.834 20.1377 114.603 18.5847 114.925 16.5539H111.489C111.393 17.5411 110.963 18.4659 110.27 19.1748Z" fill="#27CCB8"/>
<path d="M16.8631 12.8896C16.4988 12.3849 16.0558 11.942 15.5511 11.5778C14.9916 11.1785 14.3706 10.8732 13.7127 10.6742C13.4307 10.5941 12.9636 10.4683 12.3114 10.2969C11.6591 10.1255 10.9908 9.94968 10.3064 9.76941C9.62255 9.58813 9.00426 9.42235 8.45157 9.27207C7.89888 9.12178 7.58262 9.03613 7.50279 9.01514C6.81714 8.83704 6.18239 8.50168 5.64888 8.03562C5.25815 7.61791 5.01438 7.08412 4.95455 6.51528C4.89472 5.94645 5.02211 5.37365 5.31738 4.88378C5.56223 4.52744 5.88718 4.23342 6.26616 4.02532C6.66196 3.80899 7.08932 3.65626 7.53258 3.57275C7.97995 3.48374 8.43491 3.43831 8.89105 3.43708C10.0284 3.39083 11.1531 3.69033 12.1169 4.2961C12.872 4.80882 13.3287 5.64792 13.4871 6.8134H17.2923C17.2596 5.92734 17.0369 5.05866 16.6393 4.26613C16.2066 3.42462 15.5938 2.68872 14.8446 2.1107C14.0605 1.5125 13.1706 1.0674 12.2216 0.798715C11.1878 0.502372 10.1168 0.355419 9.04134 0.362291C8.07449 0.362508 7.11182 0.489314 6.17791 0.739509C5.27173 0.972783 4.41421 1.36517 3.64526 1.89836C2.90739 2.41459 2.29448 3.08947 1.8515 3.87351C1.38128 4.737 1.14715 5.70925 1.17274 6.69214C1.17184 7.2525 1.24757 7.81037 1.39779 8.35023C1.55634 8.9059 1.81709 9.42714 2.16668 9.88724C2.57124 10.4087 3.06659 10.8528 3.62893 11.1983C4.3437 11.633 5.12188 11.9536 5.93541 12.1486C7.42271 12.5506 8.67396 12.877 9.68915 13.1279C10.5924 13.3462 11.4831 13.6132 12.3575 13.9277C12.8236 14.1049 13.2417 14.3888 13.5782 14.7567C13.9914 15.2706 14.1916 15.9235 14.1374 16.5807C14.1365 16.9895 14.0551 17.3941 13.8978 17.7714C13.726 18.1767 13.457 18.5334 13.1144 18.8099C12.6928 19.1433 12.2122 19.3943 11.6977 19.55C11.0137 19.7551 10.3018 19.8517 9.58783 19.8361C8.87137 19.8421 8.15709 19.756 7.46256 19.58C6.83732 19.4227 6.24835 19.1462 5.728 18.7655C5.22462 18.3919 4.82101 17.9001 4.55285 17.3335C4.25458 16.6707 4.11035 15.9491 4.13102 15.2226H0.356989C0.346654 16.4152 0.604084 17.5948 1.11031 18.6746C1.56114 19.6115 2.22167 20.4318 3.04069 21.0722C3.88546 21.7156 4.84844 22.1868 5.87488 22.4589C7.00451 22.7663 8.17066 22.9186 9.34133 22.9117C10.3979 22.9123 11.4507 22.7856 12.477 22.5344C13.455 22.304 14.3839 21.9008 15.2202 21.3439C16.0214 20.8047 16.6871 20.0875 17.1653 19.2484C17.6809 18.302 17.9359 17.2356 17.9042 16.1583C17.9023 15.5857 17.8158 15.0167 17.6473 14.4695C17.474 13.9035 17.209 13.3698 16.8631 12.8896Z" fill="#27CCB8"/>
<path d="M96.7187 5.39721C97.7363 5.39721 98.5613 4.57228 98.5613 3.55468C98.5613 2.53709 97.7363 1.71216 96.7187 1.71216C95.7011 1.71216 94.8762 2.53709 94.8762 3.55468C94.8762 4.57228 95.7011 5.39721 96.7187 5.39721Z" fill="#27CCB8"/>
</svg>
