<svg width="27" height="28" viewBox="0 0 27 28" fill="none" xmlns="http://www.w3.org/2000/svg">
<g clip-path="url(#clip0)">
<path d="M25.0527 0H1.94726C0.871765 0 0 0.904053 0 2.01938V25.9806C0 27.0959 0.871765 28 1.94726 28H25.0527C26.1282 28 27 27.0959 27 25.9806V2.01938C27 0.904053 26.1282 0 25.0527 0V0ZM19.6639 10.9157C19.6699 11.0535 19.6728 11.1919 19.6728 11.331C19.6728 15.5772 16.5561 20.4736 10.8565 20.4738H10.8567H10.8565C9.10657 20.4738 7.47819 19.9419 6.10689 19.0304C6.34934 19.0601 6.59612 19.0748 6.84599 19.0748C8.29784 19.0748 9.63391 18.5613 10.6946 17.6993C9.3381 17.6732 8.19443 16.7442 7.79974 15.4674C7.98864 15.505 8.18289 15.5255 8.38209 15.5255C8.66492 15.5255 8.93889 15.486 9.19926 15.4123C7.78141 15.1179 6.71333 13.8184 6.71333 12.2624C6.71333 12.2479 6.71333 12.2348 6.71375 12.2214C7.13129 12.4621 7.60879 12.607 8.11718 12.6232C7.28517 12.0475 6.73826 11.0633 6.73826 9.94843C6.73826 9.35968 6.89172 8.80811 7.15787 8.33322C8.68593 10.2776 10.9696 11.5564 13.5449 11.6907C13.4918 11.4553 13.4644 11.2101 13.4644 10.958C13.4644 9.18408 14.8521 7.7449 16.5633 7.7449C17.4547 7.7449 18.2597 8.13562 18.8251 8.76025C19.5311 8.61584 20.194 8.34839 20.7928 7.98032C20.5611 8.73035 20.07 9.35968 19.4301 9.75766C20.057 9.6799 20.6544 9.50751 21.2095 9.25159C20.7949 9.89609 20.269 10.4622 19.6639 10.9157Z" fill="white"/>
</g>
<defs>
<clipPath id="clip0">
<rect width="27" height="28" fill="white"/>
</clipPath>
</defs>
</svg>
