<svg xmlns="http://www.w3.org/2000/svg" width="54.206" height="48.5" viewBox="0 0 54.206 48.5">
  <g id="noun_application_2833831" transform="translate(-144 -240)">
    <g id="Group_61" data-name="Group 61" transform="translate(144 240)">
      <path id="Path_31" data-name="Path 31" d="M184.95,256.109a1.426,1.426,0,0,0-1.009-.418h-2.853a1.426,1.426,0,0,0-1.009.418l-3.271,3.271V241.426A1.426,1.426,0,0,0,175.383,240H152.559a1.426,1.426,0,0,0-1.426,1.426V261.4a1.426,1.426,0,0,0-1.009.418l-5.706,5.706A1.426,1.426,0,0,0,144,268.53v18.544a1.426,1.426,0,0,0,1.426,1.426h14.265a1.426,1.426,0,0,0,1.426-1.426v-5.115l2.017-2.017h12.247a1.426,1.426,0,0,0,1.426-1.426h6.541l2.435,2.435a1.426,1.426,0,0,0,2.017,0l9.985-9.985a1.426,1.426,0,0,0,0-2.017Zm-26.267,24.25a1.426,1.426,0,0,0-.418,1.009v4.279H146.853V269.12l4.279-4.279v8.681a3.566,3.566,0,0,0,7.132,0v-2.14a1.426,1.426,0,0,1,2.853,0v6.542Zm5.288-3.271v-5.706a4.279,4.279,0,1,0-8.559,0v2.14a.713.713,0,0,1-1.426,0V242.853h19.971V259.38l-2.558-2.557q-.081-.08-.164-.156l-.027-.023c-.048-.043-.1-.085-.146-.125l-.008-.006a4.452,4.452,0,0,0-5.606,0l-.008.006c-.05.04-.1.083-.146.125l-.027.023q-.084.076-.164.156t-.156.164l-.023.026c-.043.048-.085.1-.126.146l-.005.007a4.453,4.453,0,0,0,0,5.609l.005.007c.041.05.083.1.126.146l.023.026q.076.084.156.164l8.263,8.263-1.844,1.844a1.426,1.426,0,0,0,0,2.017l1.844,1.844Zm22.824.836-1.844-1.844a1.426,1.426,0,0,0-1.009-.418h-7.968l-1.426-1.426,1.844-1.844a1.426,1.426,0,0,0,0-2.017l-9.272-9.272a1.6,1.6,0,1,1,2.262-2.262l4.993,4.993a1.43,1.43,0,0,0,.145.125l.036.027a1.425,1.425,0,0,0,.158.1h0a1.423,1.423,0,0,0,.174.077l.036.013a1.423,1.423,0,0,0,.176.048h.005a1.441,1.441,0,0,0,.183.023l.045,0a1.438,1.438,0,0,0,.181,0h0a1.438,1.438,0,0,0,.186-.032l.039-.01a1.409,1.409,0,0,0,.184-.06h0l0,0a1.423,1.423,0,0,0,.168-.085l.034-.02a1.427,1.427,0,0,0,.154-.109l.016-.014c.03-.025.06-.051.088-.079l5.288-5.288h1.671l11.412,11.412Z" transform="translate(-144 -240)" fill="#13b5af"/>
      <path id="Path_35" data-name="Path 35" d="M221.288,272.418a1.426,1.426,0,0,0-2.017,0l-2.853,2.853a1.426,1.426,0,0,0,0,2.017l2.853,2.853a1.426,1.426,0,0,0,2.017-2.017l-1.844-1.844,1.844-1.844A1.426,1.426,0,0,0,221.288,272.418Z" transform="translate(-203.162 -266.294)" fill="#13b5af"/>
      <path id="Path_36" data-name="Path 36" d="M264.418,280.141a1.426,1.426,0,0,0,2.017,0l2.853-2.853a1.426,1.426,0,0,0,0-2.017l-2.853-2.853a1.426,1.426,0,0,0-2.017,2.017l1.844,1.844-1.844,1.844A1.426,1.426,0,0,0,264.418,280.141Z" transform="translate(-242.603 -266.294)" fill="#13b5af"/>
    </g>
  </g>
</svg>
