<svg xmlns="http://www.w3.org/2000/svg" width="150" height="150" viewBox="0 0 150 150">
  <g id="Group_161" data-name="Group 161" transform="translate(12 23)">
    <path id="Path_450" data-name="Path 450" d="M335.092,558.632a37.44,37.44,0,0,1-50.821,51.662" transform="translate(-238.568 -529.01)" fill="none" stroke="#5aceb8" stroke-miterlimit="10" stroke-width="3"/>
    <path id="Path_451" data-name="Path 451" d="M281.574,609.165a37.431,37.431,0,1,1,52.712-52.87" transform="translate(-241.565 -531.922)" fill="none" stroke="#5aceb8" stroke-miterlimit="10" stroke-width="3"/>
    <circle id="Ellipse_124" data-name="Ellipse 124" cx="6.445" cy="6.445" r="6.445" transform="translate(0 63.002)" fill="none" stroke="#5aceb8" stroke-miterlimit="10" stroke-width="3"/>
    <ellipse id="Ellipse_125" data-name="Ellipse 125" cx="7.171" cy="4.216" rx="7.171" ry="4.216" transform="translate(35.233 34.695) rotate(-45)" fill="none" stroke="#5aceb8" stroke-miterlimit="10" stroke-width="3"/>
    <path id="Path_452" data-name="Path 452" d="M265.483,546.709l-2.835,7.694-2.835-7.424-7.491-2.9,7.491-2.9,2.835-7.424,2.835,7.424,7.491,2.9Z" transform="translate(-244.655 -533.75)" fill="none" stroke="#5aceb8" stroke-miterlimit="10" stroke-width="3"/>
    <path id="Path_453" data-name="Path 453" d="M344.582,611.111l-2.835,7.693-2.835-7.424-7.491-2.9,7.491-2.9,2.835-7.424,2.835,7.424,7.491,2.9Z" transform="translate(-229.585 -521.48)" fill="none" stroke="#5aceb8" stroke-miterlimit="10" stroke-width="3"/>
    <path id="Path_454" data-name="Path 454" d="M354.175,547.993l-82.6,82.6a3.421,3.421,0,0,1-4.818.02h0a3.423,3.423,0,0,1-.02-4.86l82.6-82.6a3.422,3.422,0,0,1,4.818-.02h0A3.422,3.422,0,0,1,354.175,547.993Z" transform="translate(-242.099 -532.149)" fill="none" stroke="#5aceb8" stroke-miterlimit="10" stroke-width="3"/>
    <rect id="Rectangle_1186" data-name="Rectangle 1186" width="150" height="150" transform="translate(-12 -23)" fill="none"/>
  </g>
</svg>
