<svg xmlns="http://www.w3.org/2000/svg" width="55.607" height="54.504" viewBox="0 0 55.607 54.504">
  <g id="noun_teamwork_1672001" transform="translate(-5 -3.69)">
    <g id="Group_547" data-name="Group 547" transform="translate(5 3.69)">
      <path id="Path_1025" data-name="Path 1025" d="M45.62,40.094a7.154,7.154,0,1,0,7.154,7.153A7.162,7.162,0,0,0,45.62,40.094Zm0,11.836A4.682,4.682,0,1,1,50.3,47.247,4.688,4.688,0,0,1,45.62,51.93Z" transform="translate(-17.789 -17.602)" fill="#13b5af"/>
      <path id="Path_1026" data-name="Path 1026" d="M78.993,54.4a7.154,7.154,0,1,0-7.154-7.154A7.162,7.162,0,0,0,78.993,54.4Zm0-11.836a4.682,4.682,0,1,1-4.683,4.682A4.688,4.688,0,0,1,78.993,42.565Z" transform="translate(-30.542 -17.602)" fill="#13b5af"/>
      <path id="Path_1027" data-name="Path 1027" d="M56.379,64.84H52.457a6.087,6.087,0,0,0-4.583,2.082l-3.236,3.7a2.587,2.587,0,0,1-1.682.859V69.607a4.772,4.772,0,0,0-4.773-4.761l-9.926-.006a.235.235,0,0,0-.086,0c-.158,0-.7,0-.7,0a4.767,4.767,0,0,0-4.761,4.761V71.49a2.587,2.587,0,0,1-1.742-.866l-3.236-3.7a6.084,6.084,0,0,0-4.583-2.082H9.229A4.231,4.231,0,0,0,5,69.062V80.326a1.236,1.236,0,0,0,2.471,0V69.062a1.755,1.755,0,0,1,1.757-1.751H13.15a3.614,3.614,0,0,1,2.722,1.237l3.236,3.7a5.073,5.073,0,0,0,3.818,1.734h3.039a.942.942,0,1,1,0,1.884H20.75a1.4,1.4,0,0,1-.94-.362l-3.63-3.275a1.236,1.236,0,0,0-1.656,1.836l1.076.971v5.288a1.236,1.236,0,0,0,2.471,0V77.268l.082.074a3.855,3.855,0,0,0,1.361.785v2.2a1.236,1.236,0,0,0,2.471,0V78.34h3.98c.056,0,.111-.006.166-.009.077.006.146.009.192.009H39.342c.051,0,.1,0,.153-.007s.1.007.146.007h3.98v1.985a1.236,1.236,0,1,0,2.471,0v-2.2a3.86,3.86,0,0,0,1.361-.784l.083-.075v3.058a1.236,1.236,0,0,0,2.471,0V75.038l1.076-.971a1.236,1.236,0,0,0-1.656-1.836L45.8,75.508a1.4,1.4,0,0,1-.94.361H39.642a.942.942,0,1,1,0-1.884h3.039A5.07,5.07,0,0,0,46.5,72.251l3.236-3.7a3.615,3.615,0,0,1,2.722-1.237h3.922a1.756,1.756,0,0,1,1.757,1.751V80.326a1.236,1.236,0,1,0,2.471,0V69.062A4.231,4.231,0,0,0,56.379,64.84ZM36.227,74.927a3.388,3.388,0,0,0,.135.942H29.244a3.4,3.4,0,0,0-3.278-4.355h-.783V69.607a2.292,2.292,0,0,1,2.29-2.29,6.908,6.908,0,0,0,.782-.03l9.928.03a2.3,2.3,0,0,1,2.3,2.29v1.907h-.843A3.417,3.417,0,0,0,36.227,74.927Z" transform="translate(-5 -27.057)" fill="#13b5af"/>
      <path id="Path_1028" data-name="Path 1028" d="M5,47.247a7.154,7.154,0,1,0,7.154-7.153A7.162,7.162,0,0,0,5,47.247Zm11.837,0a4.683,4.683,0,1,1-4.683-4.682A4.688,4.688,0,0,1,16.84,47.247Z" transform="translate(-5.001 -17.602)" fill="#13b5af"/>
      <path id="Path_1029" data-name="Path 1029" d="M36.82,3.69H23.468A5.892,5.892,0,0,0,17.58,9.572V17.19a5.887,5.887,0,0,0,5.492,5.862l-.518,1.894a1.235,1.235,0,0,0,1.711,1.447l7.173-3.321h5.382A5.888,5.888,0,0,0,42.7,17.19V9.572A5.889,5.889,0,0,0,36.82,3.69Zm3.411,13.5A3.414,3.414,0,0,1,36.82,20.6H31.167l-.022,0c-.04,0-.079.007-.119.012a1.247,1.247,0,0,0-.128.017c-.029.006-.057.018-.086.027a1.208,1.208,0,0,0-.149.051l-.016.006-5.008,2.319.238-.872c0-.012,0-.024.006-.036A1.179,1.179,0,0,0,25.9,22a1.269,1.269,0,0,0,.013-.127c0-.012,0-.024,0-.036s-.006-.049-.007-.074a1.228,1.228,0,0,0-.014-.135,1.144,1.144,0,0,0-.027-.112,1.205,1.205,0,0,0-.036-.116,1.171,1.171,0,0,0-.049-.11c-.017-.035-.035-.069-.056-.1s-.044-.065-.068-.1A1.088,1.088,0,0,0,25.588,21a1.115,1.115,0,0,0-.083-.079c-.031-.027-.062-.054-.1-.078s-.065-.043-.1-.064a1.148,1.148,0,0,0-.105-.057c-.039-.018-.08-.032-.12-.046-.025-.009-.048-.021-.074-.028s-.025,0-.038-.006a1.23,1.23,0,0,0-.127-.021,1.177,1.177,0,0,0-.122-.012c-.014,0-.026,0-.04,0H23.469a3.417,3.417,0,0,1-3.417-3.411V9.572a3.417,3.417,0,0,1,3.417-3.411H36.821a3.414,3.414,0,0,1,3.411,3.411V17.19Z" transform="translate(-9.807 -3.69)" fill="#13b5af"/>
      <path id="Path_1030" data-name="Path 1030" d="M27.614,15.429H33.6a1.236,1.236,0,0,0,0-2.471H27.614a1.236,1.236,0,1,0,0,2.471Z" transform="translate(-13.17 -7.232)" fill="#13b5af"/>
      <path id="Path_1031" data-name="Path 1031" d="M45.548,12.958H43.722a1.236,1.236,0,0,0,0,2.471h1.826a1.236,1.236,0,0,0,0-2.471Z" transform="translate(-19.325 -7.232)" fill="#13b5af"/>
      <path id="Path_1032" data-name="Path 1032" d="M29.895,21.792H27.614a1.236,1.236,0,1,0,0,2.471h2.281a1.236,1.236,0,0,0,0-2.471Z" transform="translate(-13.17 -10.608)" fill="#13b5af"/>
      <path id="Path_1033" data-name="Path 1033" d="M43.319,21.792h-5.43a1.236,1.236,0,0,0,0,2.471h5.43a1.236,1.236,0,0,0,0-2.471Z" transform="translate(-17.096 -10.608)" fill="#13b5af"/>
    </g>
  </g>
</svg>
