<svg xmlns="http://www.w3.org/2000/svg" width="247.556" height="400.029" viewBox="0 0 247.556 400.029">
  <path id="Path_858" data-name="Path 858" d="M1204.579,471.406c32.068,0,58.513-22.505,58.513-49.512,0-27.569-26.445-49.512-58.513-49.512s-58.515,22.505-58.515,49.512S1172.508,471.406,1204.579,471.406Zm0-90.584c27.567,0,50.072,18.566,50.072,41.071s-22.505,41.071-50.072,41.071S1154.5,444.4,1154.5,421.893,1177.01,380.822,1204.579,380.822ZM1321.042,568.74v-33.2c0-26.445-15.192-51.2-37.7-61.89a12.782,12.782,0,0,0-2.812-10.128,11.748,11.748,0,0,0-9-4.5h-6.751a72.97,72.97,0,0,0,13.5-42.759c0-41.071-33.2-74.267-73.7-74.267s-73.7,33.2-73.7,74.267a75.635,75.635,0,0,0,13.5,42.759h-6.751a11.752,11.752,0,0,0-9,4.5,13.409,13.409,0,0,0-2.812,10.128c-22.505,10.69-37.7,35.445-37.7,61.89v33.2c-3.937,1.687-7.313,5.064-7.313,10.125v2.252a10.683,10.683,0,0,0,10.69,10.69h0c-1.687,3.937-3.939,10.69-3.377,21.378,0,11.818,9,16.317,16.317,16.317,6.751,0,13.5-3.374,13.5-8.438v-6.751a10.115,10.115,0,0,0,9-1.127c5.064-3.937,3.377-10.125,1.688-12.94l-6.189-8.438a10.971,10.971,0,0,0,10.128-10.69v-2.252a9.807,9.807,0,0,0-6.751-9.563V535.545c0-6.751,4.5-16.879,14.627-17.441,1.127.562,1.69,1.125,2.814,1.687v69.2a6.564,6.564,0,0,0-3.377,3.377l-.562,1.125a10.106,10.106,0,0,0,1.69,12.94l2.249,2.252c-2.249,4.5-5.626,14.065-4.5,30.381v66.391c-11.253,4.5-19.128,14.627-19.128,27.567v8.441H1187.7v-38.26h0V666.075h0V641.88a11.2,11.2,0,0,0,6.751-4.5l.563-1.127c0-.562.562-.562.562-1.125h18.566c0,.562.563.562.563,1.125l.565,1.127a11.2,11.2,0,0,0,6.751,4.5v23.633h0V703.77h0v38.26H1290.1v-9a29.9,29.9,0,0,0-19.131-27.567V639.068c1.69-16.317-1.687-25.317-4.5-30.381l2.252-2.252a9.652,9.652,0,0,0,1.687-12.94V592.37l-3.374-3.377V519.228c.562-.562,1.125-.562,1.687-1.125,9.565.562,14.627,10.69,14.627,17.441V569.3c-3.937,1.687-6.751,5.626-6.751,9.563v2.252a10.971,10.971,0,0,0,10.128,10.69l-6.751,8.438a10.052,10.052,0,0,0,2.25,12.94,9.875,9.875,0,0,0,9,1.127v6.751c0,5.064,6.751,8.438,13.5,8.438,7.313,0,16.317-4.5,16.317-16.317,0-10.688-1.687-17.441-3.377-21.378h0a10.683,10.683,0,0,0,10.69-10.69v-2.252A12.682,12.682,0,0,0,1321.042,568.74ZM1271.53,467.466a2.923,2.923,0,0,1,2.252,1.125,6.932,6.932,0,0,1,1.125,5.626l-9.565,34.32c-1.125,5.064-6.751,4.5-6.751-1.687V476.469c0-5.064,2.814-9,6.751-9Zm-88.332,18,13.5,38.822h-7.876a28.23,28.23,0,0,0-6.751,1.125l-16.879-47.823A58.292,58.292,0,0,0,1183.2,485.47Zm9.565,2.252a62.62,62.62,0,0,0,23.63,0l-11.815,33.755Zm-16.879,57.95a12.488,12.488,0,0,1,12.377-12.38h33.2a12.488,12.488,0,0,1,12.377,12.38V551.3a12.488,12.488,0,0,1-12.377,12.377h-32.633a12.488,12.488,0,0,1-12.377-12.377v-5.626Zm46.135-21.38h-9.566l13.5-38.822a73.027,73.027,0,0,0,18.006-7.876l-16.317,47.26C1225.4,524.855,1223.708,524.292,1222.021,524.292Zm-17.441-173.854c36.007,0,65.264,29.259,65.264,65.829,0,36.008-28.694,64.139-65.264,64.139s-65.266-28.132-65.266-64.139C1139.313,379.7,1168.569,350.438,1204.579,350.438Zm-69.2,118.153a2.922,2.922,0,0,1,2.25-1.125h6.189c3.939,0,6.751,4.5,6.751,9v30.381c0,6.189-5.626,6.751-6.751,1.687l-9.566-34.32A6.924,6.924,0,0,1,1135.376,468.591Zm-14.067,137.844c-1.125,0-3.939-1.687-5.064-2.25l-6.751-5.626v21.38c-.562.562-2.812,1.125-5.064,1.125-5.064,0-7.876-2.814-7.876-7.878-.563-14.627,3.937-19.691,3.937-19.691l1.127-1.687h10.125l9.565,12.94C1121.871,604.748,1122.434,605.873,1121.309,606.435Zm2.814-25.317a2.421,2.421,0,0,1-2.252,2.25H1091.49a2.422,2.422,0,0,1-2.252-2.25v-2.252a2.422,2.422,0,0,1,2.252-2.25h30.381a2.421,2.421,0,0,1,2.252,2.25Zm-6.753-45.573v32.068h-20.815V535.545c0-22.505,12.94-43.886,30.943-53.449l7.878,28.129C1124.123,513.039,1117.37,524.855,1117.37,535.545Zm62.452,104.086h0v12.377a47.558,47.558,0,0,0-32.068-16.879c-.562-10.125,1.125-16.879,2.812-20.816Zm0,93.4h-51.2a20.768,20.768,0,0,1,20.818-20.816h29.819v20.816ZM1150,703.207h-2.25V643.57a42.539,42.539,0,0,1,32.068,23.63v36.57H1150Zm38.259-71.453-.562,1.125c-.563.563-1.127,1.687-2.814.563l-38.822-33.2a3.382,3.382,0,0,1-.562-2.25l.562-1.125a2.068,2.068,0,0,1,1.69-.565c.562,0,.562,0,1.125.565l38.822,33.193C1188.825,630.065,1188.825,631.192,1188.262,631.755Zm12.378-5.064h-4.5a10.1,10.1,0,0,0-2.812-3.939l-38.26-32.633a4.861,4.861,0,0,0-3.377-1.687v-69.2c3.939-1.687,7.316-6.189,7.316-12.94V486.595l15.189,43.323c-3.937,3.939-6.751,9-6.751,15.192v5.626a20.768,20.768,0,0,0,20.818,20.816h33.2a20.768,20.768,0,0,0,20.816-20.816V545.11c0-6.754-3.375-12.38-7.876-16.317l14.627-42.761v20.256c0,7.313,3.939,11.815,9,12.94v68.078l-3.377,1.687-38.82,33.2a10.058,10.058,0,0,0-2.814,3.939H1200.64Zm21.38,2.812,38.82-33.2c.565-.562.565-.562,1.127-.562s1.125.562,1.687.562l.563,1.127a1.391,1.391,0,0,1-.562,2.25l-38.822,33.2c-1.125,1.125-2.249.563-2.812-.562v-.562A1.714,1.714,0,0,1,1222.021,629.5Zm59.637,103.523h-51.2V711.648h29.819A21.37,21.37,0,0,1,1281.658,733.026Zm-51.2-29.819v-36.57c1.687-3.939,10.128-20.256,32.071-23.63v60.2h-32.071Zm32.071-68.078c-15.754,2.252-25.882,9.565-32.071,16.879V639.631l29.256-25.317C1261.4,618.25,1263.092,624.439,1262.53,635.129Zm10.69-124.9L1281.1,482.1c18.566,9.563,30.944,30.944,30.944,53.449v32.068h-20.816V535.545C1291.786,524.855,1284.472,513.039,1273.22,510.225Zm30.944,110.839a11.24,11.24,0,0,1-5.064-1.125v-21.38l-6.751,5.626c-1.125,1.125-3.939,2.25-5.064,2.812a2.463,2.463,0,0,1-.562-1.687l10.128-12.94h10.128l1.125,1.687s3.937,5.064,3.937,19.693C1312.039,618.25,1309.79,621.064,1304.164,621.064Zm15.192-39.947a2.42,2.42,0,0,1-2.252,2.25h-30.381a2.419,2.419,0,0,1-2.25-2.25v-2.252a2.419,2.419,0,0,1,2.25-2.25H1317.1a2.42,2.42,0,0,1,2.252,2.25Zm-135.032-32.633a5.626,5.626,0,1,1,5.626,5.626A5.637,5.637,0,0,1,1184.323,548.485Zm15.192,0a5.626,5.626,0,1,1,5.626,5.626A6.049,6.049,0,0,1,1199.515,548.485Zm16.317,0a5.626,5.626,0,1,1,5.626,5.626A5.637,5.637,0,0,1,1215.832,548.485Zm-14.629-97.9a4.438,4.438,0,0,1,4.5-4.5c16.879,0,30.381-13.5,30.381-29.819a4.438,4.438,0,0,1,4.5-4.5,4.143,4.143,0,0,1,4.5,4.5c0,20.818-17.441,38.26-38.822,38.26C1202.889,454.527,1201.2,452.837,1201.2,450.587Z" transform="translate(-1080.8 -342)" fill="#fff"/>
</svg>
