<svg xmlns="http://www.w3.org/2000/svg" width="218" height="218" viewBox="0 0 218 218">
  <g id="Group_293" data-name="Group 293" transform="translate(1397.356 -3044)">
    <path id="Path_859" data-name="Path 859" d="M849.367,490.167H638.633A3.635,3.635,0,0,1,635,486.533v-119.9A3.634,3.634,0,0,1,638.633,363H849.367A3.634,3.634,0,0,1,853,366.633v119.9A3.634,3.634,0,0,1,849.367,490.167Zm-207.1-7.267H845.733V370.267H642.267Z" transform="translate(-2032.356 2681)" fill="#0e0e0e"/>
    <path id="Path_860" data-name="Path 860" d="M829.033,469.833H647.367a3.633,3.633,0,0,1-3.635-3.633V375.367a3.635,3.635,0,0,1,3.635-3.634H829.033a3.635,3.635,0,0,1,3.635,3.634V466.2A3.633,3.633,0,0,1,829.033,469.833ZM651,462.567H825.4V379H651Z" transform="translate(-2026.556 2686.8)" fill="#0e0e0e"/>
    <path id="Path_861" data-name="Path 861" d="M849.367,533.15H638.633A3.634,3.634,0,0,1,635,529.517V438.683a3.634,3.634,0,0,1,3.633-3.633H849.367A3.634,3.634,0,0,1,853,438.683v90.834A3.634,3.634,0,0,1,849.367,533.15Zm-207.1-7.267H845.733V442.317H642.267Z" transform="translate(-2032.356 2728.85)" fill="#0e0e0e"/>
    <rect id="Rectangle_1198" data-name="Rectangle 1198" width="14.533" height="7.267" transform="translate(-1382.823 3182.067)" fill="#0e0e0e"/>
    <rect id="Rectangle_1199" data-name="Rectangle 1199" width="14.533" height="7.267" transform="translate(-1382.823 3200.233)" fill="#0e0e0e"/>
    <rect id="Rectangle_1200" data-name="Rectangle 1200" width="14.533" height="7.267" transform="translate(-1382.823 3218.4)" fill="#0e0e0e"/>
    <rect id="Rectangle_1201" data-name="Rectangle 1201" width="14.533" height="7.267" transform="translate(-1382.823 3236.567)" fill="#0e0e0e"/>
    <rect id="Rectangle_1202" data-name="Rectangle 1202" width="14.533" height="7.267" transform="translate(-1295.623 3182.067)" fill="#0e0e0e"/>
    <rect id="Rectangle_1203" data-name="Rectangle 1203" width="14.533" height="7.267" transform="translate(-1295.623 3200.233)" fill="#0e0e0e"/>
    <rect id="Rectangle_1204" data-name="Rectangle 1204" width="14.533" height="7.267" transform="translate(-1295.623 3218.4)" fill="#0e0e0e"/>
    <rect id="Rectangle_1205" data-name="Rectangle 1205" width="14.533" height="7.267" transform="translate(-1208.423 3182.067)" fill="#0e0e0e"/>
    <rect id="Rectangle_1206" data-name="Rectangle 1206" width="14.533" height="7.267" transform="translate(-1208.423 3200.233)" fill="#0e0e0e"/>
    <rect id="Rectangle_1207" data-name="Rectangle 1207" width="14.533" height="7.267" transform="translate(-1208.423 3218.4)" fill="#0e0e0e"/>
    <rect id="Rectangle_1208" data-name="Rectangle 1208" width="14.533" height="7.267" transform="translate(-1208.423 3236.567)" fill="#0e0e0e"/>
    <path id="Path_862" data-name="Path 862" d="M716.535,524.835,703.819,512.12a11.358,11.358,0,0,1,0-16.039A11.52,11.52,0,0,1,715.03,493.2V456.867A10.9,10.9,0,0,1,733.2,448.75a10.877,10.877,0,0,1,14.533,0,10.879,10.879,0,0,1,14.534,0,10.9,10.9,0,0,1,18.166,8.118v65.4h-7.266v-65.4a3.634,3.634,0,1,0-7.267,0v18.166a3.634,3.634,0,1,1-7.267,0V456.867a3.633,3.633,0,1,0-7.266,0v18.166a3.634,3.634,0,1,1-7.267,0V456.867a3.634,3.634,0,1,0-7.267,0v18.166a3.633,3.633,0,1,1-7.266,0V456.867a3.634,3.634,0,1,0-7.267,0v43.6a3.634,3.634,0,0,1-6.54,2.18l-1.2-1.588a4.165,4.165,0,0,0-5.61.145,4.079,4.079,0,0,0,0,5.763l12.717,12.716Z" transform="translate(-1988.853 2736.1)" fill="#0e0e0e"/>
    <path id="Path_863" data-name="Path 863" d="M717.241,524.835,712.1,519.7l12.717-12.717a4.08,4.08,0,0,0,0-5.761,4.166,4.166,0,0,0-5.763,0c-.092.09-.19.178-.291.261l-2.256,1.816a3.632,3.632,0,0,1-5.911-2.829v-43.6a3.634,3.634,0,1,0-7.267,0v18.166a3.633,3.633,0,1,1-7.266,0V456.867a3.634,3.634,0,1,0-7.267,0v18.166a3.634,3.634,0,1,1-7.267,0V456.867a3.633,3.633,0,1,0-7.266,0v18.166a3.634,3.634,0,1,1-7.267,0V456.867a3.634,3.634,0,1,0-7.267,0v65.4h-7.266v-65.4a10.9,10.9,0,0,1,18.166-8.118,10.879,10.879,0,0,1,14.534,0,10.877,10.877,0,0,1,14.533,0,10.9,10.9,0,0,1,18.167,8.118V493.51a11.57,11.57,0,0,1,12.095,2.571,11.361,11.361,0,0,1,0,16.039Z" transform="translate(-2020.756 2736.1)" fill="#0e0e0e"/>
    <rect id="Rectangle_1209" data-name="Rectangle 1209" width="7.267" height="10.275" transform="translate(-1221.892 3079.269) rotate(-45)" fill="#0e0e0e"/>
    <rect id="Rectangle_1210" data-name="Rectangle 1210" width="7.267" height="41.108" transform="translate(-1243.693 3079.27) rotate(-45)" fill="#0e0e0e"/>
  </g>
</svg>
