<svg xmlns="http://www.w3.org/2000/svg" width="339.988" height="282.953" viewBox="0 0 339.988 282.953">
  <g id="Group_282" data-name="Group 282" transform="translate(-239.748 -519.575)">
    <path id="Path_839" data-name="Path 839" d="M416.138,558.472a97.982,97.982,0,0,1-133,135.2" transform="translate(81.217 52.641)" fill="none" stroke="#0fd1b9" stroke-miterlimit="10" stroke-width="10"/>
    <path id="Path_840" data-name="Path 840" d="M301.516,715.437A97.959,97.959,0,1,1,439.467,577.078" transform="translate(47.936 20.301)" fill="none" stroke="#0fd1b9" stroke-miterlimit="10" stroke-width="10"/>
    <circle id="Ellipse_160" data-name="Ellipse 160" cx="16.866" cy="16.866" r="16.866" transform="translate(244.748 698.47)" fill="none" stroke="#0fd1b9" stroke-miterlimit="10" stroke-width="10"/>
    <ellipse id="Ellipse_161" data-name="Ellipse 161" cx="18.766" cy="11.035" rx="18.766" ry="11.035" transform="translate(336.955 624.39) rotate(-45)" fill="none" stroke="#0fd1b9" stroke-miterlimit="10" stroke-width="10"/>
    <path id="Path_841" data-name="Path 841" d="M285.632,567.5l-7.419,20.134-7.419-19.428-19.605-7.6,19.605-7.6,7.419-19.428,7.419,19.428,19.605,7.6Z" transform="translate(13.625)" fill="none" stroke="#0fd1b9" stroke-miterlimit="10" stroke-width="10"/>
    <path id="Path_842" data-name="Path 842" d="M364.731,631.907l-7.419,20.134-7.419-19.428-19.605-7.6,19.605-7.6,7.419-19.428,7.419,19.428,19.605,7.6Z" transform="translate(180.97 136.252)" fill="none" stroke="#0fd1b9" stroke-miterlimit="10" stroke-width="10"/>
    <path id="Path_843" data-name="Path 843" d="M496.05,557.278,279.893,773.435a8.957,8.957,0,0,1-12.612.053h0a8.954,8.954,0,0,1-.053-12.715L483.385,544.616A8.954,8.954,0,0,1,496,544.563h0A8.954,8.954,0,0,1,496.05,557.278Z" transform="translate(42.011 17.775)" fill="none" stroke="#0fd1b9" stroke-miterlimit="10" stroke-width="10"/>
  </g>
</svg>
