<svg xmlns="http://www.w3.org/2000/svg" width="44.091" height="52.743" viewBox="0 0 44.091 52.743">
  <g id="noun_Innovative_idea_2105603" data-name="noun_Innovative idea_2105603" transform="translate(-6.05 -0.75)">
    <g id="Group_530" data-name="Group 530" transform="translate(6.3 1)">
      <path id="Path_1013" data-name="Path 1013" d="M41.812,21.543l-2.449-.327c-.163-.408-.327-.735-.49-1.143l1.469-1.959a.763.763,0,0,0-.082-1.061l-2.367-2.367a.769.769,0,0,0-1.061-.082l-1.959,1.469c-.327-.163-.735-.327-1.143-.49L33.4,13.135a.868.868,0,0,0-.816-.735H29.159a.868.868,0,0,0-.816.735l-.327,2.449c-.408.163-.735.327-1.143.49L25,14.522a.763.763,0,0,0-1.061.082l-2.449,2.449a.769.769,0,0,0-.082,1.061l1.469,1.959c-.163.327-.327.735-.49,1.143l-2.449.327a.868.868,0,0,0-.735.816v3.428a.868.868,0,0,0,.735.816l2.449.327c.163.408.327.735.49,1.143L21.4,30.032a.763.763,0,0,0,.082,1.061l2.367,2.367a.769.769,0,0,0,1.061.082l1.959-1.469c.327.163.735.327,1.143.49l.327,2.449a.868.868,0,0,0,.816.735h3.428a.868.868,0,0,0,.816-.735l.327-2.449c.408-.163.735-.327,1.143-.49l1.959,1.469a.763.763,0,0,0,1.061-.082l2.367-2.367a.769.769,0,0,0,.082-1.061l-1.469-1.959c.163-.327.327-.735.49-1.143l2.449-.327a.868.868,0,0,0,.735-.816V22.359C42.465,21.951,42.22,21.543,41.812,21.543Zm-.98,3.428-2.2.327a.791.791,0,0,0-.653.571,5.442,5.442,0,0,1-.735,1.714.742.742,0,0,0,.082.9l1.388,1.8-1.388,1.388-1.8-1.388a.894.894,0,0,0-.9-.082,7.75,7.75,0,0,1-1.714.735.693.693,0,0,0-.571.653l-.327,2.2H30.057l-.327-2.2a.791.791,0,0,0-.571-.653,5.443,5.443,0,0,1-1.714-.735.742.742,0,0,0-.9.082l-1.8,1.388-1.388-1.388,1.388-1.8a.894.894,0,0,0,.082-.9,7.749,7.749,0,0,1-.735-1.714.693.693,0,0,0-.653-.571l-2.2-.327V23.012l2.2-.327a.791.791,0,0,0,.653-.571,5.442,5.442,0,0,1,.735-1.714.742.742,0,0,0-.082-.9l-1.388-1.8,1.388-1.388,1.8,1.388a.894.894,0,0,0,.9.082,7.75,7.75,0,0,1,1.714-.735.693.693,0,0,0,.571-.653l.327-2.2h1.959l.327,2.2a.791.791,0,0,0,.571.653,5.443,5.443,0,0,1,1.714.735.742.742,0,0,0,.9-.082l1.8-1.388,1.388,1.388-1.388,1.8a.894.894,0,0,0-.082.9,7.75,7.75,0,0,1,.735,1.714.693.693,0,0,0,.653.571l2.2.327Z" transform="translate(-8.67 -3.094)" fill="#13b5af" stroke="#13b5af" stroke-width="0.5"/>
      <path id="Path_1014" data-name="Path 1014" d="M32.49,21.1a4.49,4.49,0,1,0,4.49,4.49A4.477,4.477,0,0,0,32.49,21.1Zm0,7.347a2.857,2.857,0,1,1,2.857-2.857A2.743,2.743,0,0,1,32.49,28.447Z" transform="translate(-10.286 -4.692)" fill="#13b5af" stroke="#13b5af" stroke-width="0.5"/>
      <path id="Path_1015" data-name="Path 1015" d="M28.274,7.577a15.642,15.642,0,0,0-8.326,27.509,8.059,8.059,0,0,1,2.775,5.877,2.893,2.893,0,0,0,1.224,4.979,2.683,2.683,0,0,0-.327,1.388,2.89,2.89,0,0,0,2.367,2.857v.163a4.093,4.093,0,0,0,4.082,4.082h.082a4.093,4.093,0,0,0,4.082-4.082v-.163A2.97,2.97,0,0,0,36.6,47.331a3.846,3.846,0,0,0-.327-1.388,2.985,2.985,0,0,0,2.2-2.857,3.083,3.083,0,0,0-.98-2.2,7.773,7.773,0,0,1,2.775-5.877,15.609,15.609,0,0,0,5.551-11.918A15.836,15.836,0,0,0,28.274,7.577ZM32.6,50.352A2.456,2.456,0,0,1,30.152,52.8H30.07a2.456,2.456,0,0,1-2.449-2.449V50.27h5.061v.082Zm1.061-1.8H26.478a1.223,1.223,0,0,1-1.224-1.306,1.2,1.2,0,0,1,1.224-1.224h7.183a1.223,1.223,0,0,1,1.224,1.306A1.2,1.2,0,0,1,33.662,48.556Zm1.8-4.163H24.519a1.223,1.223,0,0,1-1.224-1.306,1.2,1.2,0,0,1,1.224-1.224H35.458a1.274,1.274,0,0,1,1.224,1.306A1.155,1.155,0,0,1,35.458,44.393Zm3.592-10.612a9.349,9.349,0,0,0-3.265,6.367H24.274a9.446,9.446,0,0,0-3.347-6.367,13.986,13.986,0,1,1,23.02-10.612A13.389,13.389,0,0,1,39.049,33.781Z" transform="translate(-7.785 -2.19)" fill="#13b5af" stroke="#13b5af" stroke-width="0.5"/>
      <path id="Path_1016" data-name="Path 1016" d="M32.816,4.755a.771.771,0,0,0,.816-.816V1.816a.816.816,0,0,0-1.633,0V3.939A.771.771,0,0,0,32.816,4.755Z" transform="translate(-11.021 -1)" fill="#13b5af" stroke="#13b5af" stroke-width="0.5"/>
      <path id="Path_1017" data-name="Path 1017" d="M20.325,7.5a.84.84,0,0,0,1.469-.816L20.652,4.809a.9.9,0,0,0-1.143-.327.9.9,0,0,0-.327,1.143Z" transform="translate(-8.652 -1.625)" fill="#13b5af" stroke="#13b5af" stroke-width="0.5"/>
      <path id="Path_1018" data-name="Path 1018" d="M12.794,15.035l-1.877-1.061a.84.84,0,1,0-.816,1.469L11.978,16.5a.826.826,0,0,0,1.143-.327A.9.9,0,0,0,12.794,15.035Z" transform="translate(-6.917 -3.362)" fill="#13b5af" stroke="#13b5af" stroke-width="0.5"/>
      <path id="Path_1019" data-name="Path 1019" d="M10.055,27.516a.771.771,0,0,0-.816-.816H7.116a.816.816,0,1,0,0,1.633H9.239A.818.818,0,0,0,10.055,27.516Z" transform="translate(-6.3 -5.721)" fill="#13b5af" stroke="#13b5af" stroke-width="0.5"/>
      <path id="Path_1020" data-name="Path 1020" d="M11.986,38.382l-1.877,1.061a.84.84,0,0,0,.816,1.469L12.8,39.852a.84.84,0,1,0-.816-1.469Z" transform="translate(-6.925 -7.852)" fill="#13b5af" stroke="#13b5af" stroke-width="0.5"/>
      <path id="Path_1021" data-name="Path 1021" d="M55.094,39.535l-1.877-1.061a.84.84,0,1,0-.816,1.469L54.278,41a.826.826,0,0,0,1.143-.327C55.584,40.188,55.5,39.7,55.094,39.535Z" transform="translate(-14.687 -7.863)" fill="#13b5af" stroke="#13b5af" stroke-width="0.5"/>
      <path id="Path_1022" data-name="Path 1022" d="M58.039,26.7H55.916a.816.816,0,1,0,0,1.633h2.122a.816.816,0,1,0,0-1.633Z" transform="translate(-15.264 -5.721)" fill="#13b5af" stroke="#13b5af" stroke-width="0.5"/>
      <path id="Path_1023" data-name="Path 1023" d="M53.225,16.513,55.1,15.452a.84.84,0,1,0-.816-1.469l-1.877,1.061a.84.84,0,1,0,.816,1.469Z" transform="translate(-14.696 -3.37)" fill="#13b5af" stroke="#13b5af" stroke-width="0.5"/>
      <path id="Path_1024" data-name="Path 1024" d="M44,7.821a.826.826,0,0,0,1.143-.327L46.2,5.617A.84.84,0,0,0,44.735,4.8L43.674,6.678A.826.826,0,0,0,44,7.821Z" transform="translate(-13.144 -1.617)" fill="#13b5af" stroke="#13b5af" stroke-width="0.5"/>
    </g>
  </g>
</svg>
