<svg xmlns="http://www.w3.org/2000/svg" width="134.483" height="33.124" viewBox="0 0 134.483 33.124"><g transform="translate(3031 -3508.242)"><g transform="translate(-3031 3508.242)"><path d="M-2994.044,3532.039h-.07l-4.778-13.66h-4.423l6.936,18.225-.46,1.416a7.786,7.786,0,0,1-.389,1.062,3.186,3.186,0,0,1-.513.8,1.945,1.945,0,0,1-.761.513,3.286,3.286,0,0,1-1.168.177,5.1,5.1,0,0,1-.956-.088q-.459-.09-.956-.16v3.4a18.391,18.391,0,0,0,2.8.212,5.86,5.86,0,0,0,2.619-.513,5.048,5.048,0,0,0,1.716-1.38,8.524,8.524,0,0,0,1.168-2q.478-1.132.973-2.371l7.114-19.287h-4.212Z" transform="translate(3023.999 -3510.805)" fill="#27edb6"/><path d="M-2967.482,3517.716a6.422,6.422,0,0,0-3.291.867,6.776,6.776,0,0,0-2.406,2.389l-.07-.07v-2.689h-3.822V3537h4.034v-11.289a5.51,5.51,0,0,1,.318-1.875,4.843,4.843,0,0,1,.885-1.54,3.991,3.991,0,0,1,1.381-1.026,4.374,4.374,0,0,1,1.84-.372,3.342,3.342,0,0,1,2.655.973,4.97,4.97,0,0,1,.92,3.132v12h4.034v-13.059a5.962,5.962,0,0,0-1.734-4.671A6.837,6.837,0,0,0-2967.482,3517.716Z" transform="translate(3017.363 -3510.637)" fill="#27edb6"/><path d="M-2935.379,3533.817a.818.818,0,0,1-.76-.318,2.134,2.134,0,0,1-.2-1.062v-9.413a4.512,4.512,0,0,0-.637-2.459,5.092,5.092,0,0,0-1.681-1.646,7.56,7.56,0,0,0-2.354-.92,12.51,12.51,0,0,0-2.654-.283,15.46,15.46,0,0,0-2.973.283,7.731,7.731,0,0,0-2.6.991,5.86,5.86,0,0,0-1.893,1.875,6.066,6.066,0,0,0-.85,2.937h4.034a2.761,2.761,0,0,1,1.239-2.194,5.075,5.075,0,0,1,2.8-.708,9.954,9.954,0,0,1,1.274.088,3.973,3.973,0,0,1,1.22.354,2.5,2.5,0,0,1,.92.761,2.073,2.073,0,0,1,.371,1.274,1.8,1.8,0,0,1-.442,1.327,2.688,2.688,0,0,1-1.2.655,9.773,9.773,0,0,1-1.752.3,20.537,20.537,0,0,0-2.087.3q-1.274.141-2.531.407a7.315,7.315,0,0,0-2.264.867,4.584,4.584,0,0,0-1.628,1.663,5.433,5.433,0,0,0-.619,2.76,5.126,5.126,0,0,0,.513,2.354,4.741,4.741,0,0,0,1.38,1.663,6.2,6.2,0,0,0,2,.991,8.3,8.3,0,0,0,2.372.336,11.631,11.631,0,0,0,3.379-.531,7.136,7.136,0,0,0,2.955-1.7,2.463,2.463,0,0,0,1.062,1.734,3.885,3.885,0,0,0,2.053.5c.165,0,.365-.012.6-.035s.472-.06.708-.107.466-.1.69-.159.407-.112.548-.159v-2.8a2.6,2.6,0,0,1-.565.071Zm-4.99-3.468a2.734,2.734,0,0,1-.459,1.61,3.864,3.864,0,0,1-1.151,1.08,4.8,4.8,0,0,1-1.468.6,6.507,6.507,0,0,1-1.451.177,7.47,7.47,0,0,1-1.186-.106,4.362,4.362,0,0,1-1.2-.372,2.828,2.828,0,0,1-.938-.725,1.7,1.7,0,0,1-.389-1.133,3.023,3.023,0,0,1,.266-1.327,2.327,2.327,0,0,1,.725-.884,3.726,3.726,0,0,1,1.062-.531,8.7,8.7,0,0,1,1.239-.3q1.343-.247,2.689-.371a4.894,4.894,0,0,0,2.264-.726Z" transform="translate(3011.187 -3510.637)" fill="#27edb6"/><path d="M-2910.013,3520.565a7.424,7.424,0,0,0-2.672-2.088,8.738,8.738,0,0,0-3.769-.761,7.881,7.881,0,0,0-3.291.69,4.99,4.99,0,0,0-2.371,2.282h-.07v-2.477h-3.822v25.055h4.035v-9.131h.071a4.979,4.979,0,0,0,1.15,1.292,6.667,6.667,0,0,0,1.5.9,7.648,7.648,0,0,0,1.7.513,9.983,9.983,0,0,0,1.769.159,7.31,7.31,0,0,0,3.5-.8,7.26,7.26,0,0,0,2.459-2.124,9.291,9.291,0,0,0,1.451-3.061,13.4,13.4,0,0,0,.477-3.574,13.1,13.1,0,0,0-.531-3.786A9.049,9.049,0,0,0-2910.013,3520.565Zm-2.176,9.165a5.967,5.967,0,0,1-.885,2.052,4.918,4.918,0,0,1-1.574,1.469,4.5,4.5,0,0,1-2.335.566,4.6,4.6,0,0,1-2.177-.5,5.045,5.045,0,0,1-1.61-1.345,5.764,5.764,0,0,1-1.009-2.035,9.355,9.355,0,0,1-.336-2.565,7.806,7.806,0,0,1,1.292-4.706,4.45,4.45,0,0,1,3.84-1.77,4.331,4.331,0,0,1,2.194.548,4.926,4.926,0,0,1,1.592,1.451,6.545,6.545,0,0,1,.956,2.069,9.149,9.149,0,0,1,.318,2.407A10.467,10.467,0,0,1-2912.188,3529.73Z" transform="translate(3004.451 -3510.637)" fill="#27edb6"/><g transform="translate(96.639 3.999)"><path d="M-2889.326,3520.177l-1.147-3.008h-4.038v-3.574h-4.034v3.574h-3.108v3.008h3.108v10.793a10.938,10.938,0,0,0,.23,2.017,3.042,3.042,0,0,0,.743,1.469,3.417,3.417,0,0,0,1.521.885,8.931,8.931,0,0,0,2.566.3,11.88,11.88,0,0,0,1.31-.071q.636-.072,1.309-.142v-3.114a4.161,4.161,0,0,1-.849.124q-.425.018-.85.018a2.854,2.854,0,0,1-1.062-.16,1.18,1.18,0,0,1-.584-.477,1.886,1.886,0,0,1-.247-.779,9.792,9.792,0,0,1-.053-1.1v-9.767Z" transform="translate(2901.653 -3513.595)" fill="#27edb6"/><rect width="4.034" height="18.296" transform="translate(14.453 3.574)" fill="#27edb6"/></g><path d="M-2862.312,3532.72a4.055,4.055,0,0,1-2.92,1.1,4.271,4.271,0,0,1-2.229-.548,4.579,4.579,0,0,1-1.5-1.434,6.158,6.158,0,0,1-.849-2.017,9.882,9.882,0,0,1-.266-2.265,9.59,9.59,0,0,1,.5-3.379,5.549,5.549,0,0,1,1.238-2.018,3.955,3.955,0,0,1,1.628-.991,5.807,5.807,0,0,1,1.663-.265,4.449,4.449,0,0,1,2.814.867,3.785,3.785,0,0,1,1.362,2.566h4.034a7.024,7.024,0,0,0-.849-2.938,6.518,6.518,0,0,0-1.822-2.052,7.992,7.992,0,0,0-2.548-1.221,11.057,11.057,0,0,0-3.026-.407,9.489,9.489,0,0,0-3.946.761,7.935,7.935,0,0,0-2.814,2.088,8.825,8.825,0,0,0-1.7,3.131,12.826,12.826,0,0,0-.566,3.858,11.678,11.678,0,0,0,.583,3.751,8.413,8.413,0,0,0,1.716,2.991,8.053,8.053,0,0,0,2.779,1.981,9.352,9.352,0,0,0,3.8.726,8.261,8.261,0,0,0,5.68-1.893,8.857,8.857,0,0,0,2.708-5.468h-4.034A5.1,5.1,0,0,1-2862.312,3532.72Z" transform="translate(2991.328 -3510.637)" fill="#27edb6"/><path d="M-3011.625,3522.946a6.824,6.824,0,0,0-1.54-1.54,7.411,7.411,0,0,0-2.158-1.061q-.5-.141-1.645-.443t-2.353-.619q-1.2-.318-2.177-.583t-1.115-.3a5.365,5.365,0,0,1-2.176-1.15,2.708,2.708,0,0,1-.832-2.105,2.726,2.726,0,0,1,.442-1.593,3.255,3.255,0,0,1,1.115-1.008,5.03,5.03,0,0,1,1.486-.531,8.281,8.281,0,0,1,1.593-.159,6.6,6.6,0,0,1,3.786,1.009,4.018,4.018,0,0,1,1.609,2.955h4.466a7.26,7.26,0,0,0-.766-2.991,7.557,7.557,0,0,0-2.106-2.53,9.2,9.2,0,0,0-3.079-1.54,13.235,13.235,0,0,0-3.733-.513,13.013,13.013,0,0,0-3.361.443,9.268,9.268,0,0,0-2.973,1.362,7.074,7.074,0,0,0-2.105,2.318,6.568,6.568,0,0,0-.8,3.308,7.241,7.241,0,0,0,.265,1.947,5.418,5.418,0,0,0,.9,1.8,6.439,6.439,0,0,0,1.716,1.539,9.436,9.436,0,0,0,2.708,1.115q2.618.707,4.406,1.15a30.2,30.2,0,0,1,3.132.938,3.753,3.753,0,0,1,1.433.974,3.02,3.02,0,0,1,.655,2.141,3.649,3.649,0,0,1-.283,1.4,3.132,3.132,0,0,1-.92,1.221,5.01,5.01,0,0,1-1.663.867,8.02,8.02,0,0,1-2.478.336,9.811,9.811,0,0,1-2.495-.3,5.866,5.866,0,0,1-2.035-.956,4.475,4.475,0,0,1-1.38-1.681,5.645,5.645,0,0,1-.5-2.477H-3031a9.355,9.355,0,0,0,.885,4.052,7.953,7.953,0,0,0,2.265,2.814,9.5,9.5,0,0,0,3.326,1.627,15.13,15.13,0,0,0,4.07.531,15.441,15.441,0,0,0,3.68-.442,9.927,9.927,0,0,0,3.22-1.4,7.354,7.354,0,0,0,2.282-2.46,7.146,7.146,0,0,0,.867-3.627,6.8,6.8,0,0,0-.3-1.981A6.358,6.358,0,0,0-3011.625,3522.946Z" transform="translate(3031 -3508.242)" fill="#27edb6"/><circle cx="2.163" cy="2.163" r="2.163" transform="translate(110.947 1.585)" fill="#27edb6"/></g></g></svg>