<svg xmlns="http://www.w3.org/2000/svg" width="33.795" height="21.122" viewBox="0 0 33.795 21.122">
  <path id="Icon_metro-eye" data-name="Icon metro-eye" d="M19.468,7.712a18.926,18.926,0,0,0-16.9,10.561,18.8,18.8,0,0,0,33.795,0A18.926,18.926,0,0,0,19.468,7.712Zm8.332,5.6a16.069,16.069,0,0,1,4.932,4.96,16.07,16.07,0,0,1-4.932,4.96,15.485,15.485,0,0,1-16.663,0A16.069,16.069,0,0,1,6.2,18.273a16.069,16.069,0,0,1,4.932-4.96c.129-.083.26-.162.391-.241a8.449,8.449,0,1,0,15.88,0q.2.118.391.241ZM19.468,15.1A3.168,3.168,0,1,1,16.3,11.937,3.168,3.168,0,0,1,19.468,15.1Z" transform="translate(-2.571 -7.712)" fill="#0fd1b9"/>
</svg>
