<svg xmlns="http://www.w3.org/2000/svg" width="62.043" height="55.175" viewBox="0 0 62.043 55.175">
  <g id="Group_54" data-name="Group 54" transform="translate(16.263 -6.764) rotate(30)">
    <path id="Path_26" data-name="Path 26" d="M1.428.071A1.514,1.514,0,0,0,.421,1.96C1.806,6.493,1.68,12.473.043,18.706a1.576,1.576,0,0,0,1.07,1.889H1.24A1.536,1.536,0,0,0,3,19.462c1.826-6.925,1.952-13.284.315-18.446A1.477,1.477,0,0,0,1.428.071Z" transform="translate(48.929 11.639)" fill="#13b5af"/>
    <path id="Path_27" data-name="Path 27" d="M3.528,1.078a1.514,1.514,0,0,0-2.9.881C2.08,6.681,1.891,12.914.065,19.461a1.525,1.525,0,0,0,1.07,1.889h.126a1.587,1.587,0,0,0,1.763-1.07C4.976,13.228,5.228,6.366,3.528,1.078Z" transform="translate(55.14 12.017)" fill="#13b5af"/>
    <path id="Path_28" data-name="Path 28" d="M3.35.043a1.576,1.576,0,0,0-1.889,1.07C-.365,8.039-.491,14.4,1.146,19.56a1.589,1.589,0,0,0,1.2,1.07,1.053,1.053,0,0,0,.755-.063,1.514,1.514,0,0,0,1.007-1.889C2.72,14.145,2.846,8.165,4.483,1.932A1.554,1.554,0,0,0,3.35.043Z" transform="translate(6.339 12.233)" fill="#13b5af"/>
    <path id="Path_29" data-name="Path 29" d="M3.582.065a1.525,1.525,0,0,0-1.889,1.07C-.322,8.249-.573,15.049,1.126,20.4a1.589,1.589,0,0,0,1.2,1.07,1.053,1.053,0,0,0,.755-.063,1.514,1.514,0,0,0,1.007-1.889C2.637,14.8,2.826,8.564,4.652,2.017A1.614,1.614,0,0,0,3.582.065Z" transform="translate(0 11.015)" fill="#13b5af"/>
    <path id="Path_30" data-name="Path 30" d="M27.323,6.421A4.474,4.474,0,0,0,26,6.61a4.314,4.314,0,0,0-4.407-4.281,5.088,5.088,0,0,0-1.7.315A4.459,4.459,0,0,0,15.865,0a4.358,4.358,0,0,0-4.029,2.644,4.806,4.806,0,0,0-1.7-.315A4.4,4.4,0,0,0,5.729,6.61v8.058a9.392,9.392,0,0,0-1.322-.126A4.354,4.354,0,0,0,0,18.824V30.408a15.877,15.877,0,0,0,31.73-.881V10.64A4.384,4.384,0,0,0,27.323,6.421Zm1.322,13.6h0v9.569a12.78,12.78,0,1,1-25.56,0V23.1h0V18.824a1.329,1.329,0,0,1,2.644,0v7.114A3.306,3.306,0,0,0,7.744,28.96l5.225,2.14a1.538,1.538,0,1,0,1.2-2.833L8.814,25.938V6.61a1.324,1.324,0,0,1,2.644,0V21.342a1.511,1.511,0,0,0,3.022,0v-17A1.318,1.318,0,0,1,15.8,3.085a1.278,1.278,0,0,1,1.322,1.259v17a1.511,1.511,0,1,0,3.022,0V6.61a1.324,1.324,0,0,1,2.644,0V21.342a1.511,1.511,0,0,0,3.022,0V10.64a1.338,1.338,0,0,1,2.644,0v9.38Z" transform="translate(13.529 0)" fill="#13b5af"/>
  </g>
</svg>
