<svg xmlns="http://www.w3.org/2000/svg" width="61.756" height="74.014" viewBox="0 0 61.756 74.014">
  <g id="noun_Innovative_idea_2105603" data-name="noun_Innovative idea_2105603" transform="translate(-6.3 -1)">
    <g id="Group_530" data-name="Group 530" transform="translate(6.3 1)">
      <path id="Path_1013" data-name="Path 1013" d="M51.234,25.353l-3.469-.463c-.231-.578-.463-1.041-.694-1.619L49.153,20.5a1.081,1.081,0,0,0-.116-1.5l-3.354-3.354a1.09,1.09,0,0,0-1.5-.116L41.4,17.6c-.463-.231-1.041-.463-1.619-.694l-.463-3.469A1.23,1.23,0,0,0,38.166,12.4H33.309a1.23,1.23,0,0,0-1.156,1.041L31.69,16.91c-.578.231-1.041.463-1.619.694l-2.66-2.2a1.081,1.081,0,0,0-1.5.116l-3.469,3.469a1.09,1.09,0,0,0-.116,1.5L24.4,23.271c-.231.463-.463,1.041-.694,1.619l-3.469.463A1.23,1.23,0,0,0,19.2,26.509v4.857a1.23,1.23,0,0,0,1.041,1.156l3.469.463c.231.578.463,1.041.694,1.619L22.322,37.38a1.081,1.081,0,0,0,.116,1.5l3.354,3.354a1.09,1.09,0,0,0,1.5.116l2.776-2.082c.463.231,1.041.463,1.619.694l.463,3.469a1.23,1.23,0,0,0,1.156,1.041h4.857a1.23,1.23,0,0,0,1.156-1.041l.463-3.469c.578-.231,1.041-.463,1.619-.694l2.776,2.082a1.081,1.081,0,0,0,1.5-.116l3.354-3.354a1.09,1.09,0,0,0,.116-1.5L47.071,34.6c.231-.463.463-1.041.694-1.619l3.469-.463a1.23,1.23,0,0,0,1.041-1.156V26.509C52.16,25.931,51.813,25.353,51.234,25.353ZM49.847,30.21l-3.122.463a1.12,1.12,0,0,0-.925.81,7.711,7.711,0,0,1-1.041,2.429,1.052,1.052,0,0,0,.116,1.272l1.966,2.544-1.966,1.966L42.33,37.727a1.266,1.266,0,0,0-1.272-.116,10.979,10.979,0,0,1-2.429,1.041.981.981,0,0,0-.81.925L37.357,42.7H34.581l-.463-3.122a1.12,1.12,0,0,0-.81-.925,7.711,7.711,0,0,1-2.429-1.041,1.052,1.052,0,0,0-1.272.116l-2.544,1.966L25.1,37.727l1.966-2.544a1.266,1.266,0,0,0,.116-1.272,10.979,10.979,0,0,1-1.041-2.429.981.981,0,0,0-.925-.81l-3.122-.463V27.434l3.122-.463a1.12,1.12,0,0,0,.925-.81,7.71,7.71,0,0,1,1.041-2.429,1.052,1.052,0,0,0-.116-1.272L25.1,19.917l1.966-1.966,2.544,1.966a1.266,1.266,0,0,0,1.272.116,10.979,10.979,0,0,1,2.429-1.041.981.981,0,0,0,.81-.925l.463-3.122h2.776l.463,3.122a1.12,1.12,0,0,0,.81.925,7.711,7.711,0,0,1,2.429,1.041,1.052,1.052,0,0,0,1.272-.116l2.544-1.966,1.966,1.966-1.966,2.544a1.266,1.266,0,0,0-.116,1.272A10.979,10.979,0,0,1,45.8,26.162a.981.981,0,0,0,.925.81l3.122.463Z" transform="translate(-4.281 0.784)" fill="#0e918d"/>
      <path id="Path_1014" data-name="Path 1014" d="M34.361,21.1a6.361,6.361,0,1,0,6.361,6.361A6.342,6.342,0,0,0,34.361,21.1Zm0,10.408a4.048,4.048,0,1,1,4.048-4.048A3.886,3.886,0,0,1,34.361,31.508Z" transform="translate(-2.904 2.145)" fill="#0e918d"/>
      <path id="Path_1015" data-name="Path 1015" d="M34.063,7.619a22.16,22.16,0,0,0-11.8,38.973A11.417,11.417,0,0,1,26.2,54.919a4.1,4.1,0,0,0,1.735,7.054,3.8,3.8,0,0,0-.463,1.966,4.094,4.094,0,0,0,3.354,4.048v.231A5.8,5.8,0,0,0,36.607,74h.116A5.8,5.8,0,0,0,42.5,68.219v-.231a4.208,4.208,0,0,0,3.354-4.048,5.448,5.448,0,0,0-.463-1.966,4.23,4.23,0,0,0,3.122-4.048A4.368,4.368,0,0,0,47.131,54.8a11.012,11.012,0,0,1,3.932-8.327,22.114,22.114,0,0,0,7.864-16.885A22.435,22.435,0,0,0,34.063,7.619Zm6.129,60.6a3.479,3.479,0,0,1-3.469,3.469h-.116a3.479,3.479,0,0,1-3.469-3.469V68.1h7.17v.116Zm1.5-2.544H31.518a1.733,1.733,0,0,1-1.735-1.85,1.7,1.7,0,0,1,1.735-1.735H41.7a1.733,1.733,0,0,1,1.735,1.85A1.7,1.7,0,0,1,41.7,65.674Zm2.544-5.9h-15.5a1.733,1.733,0,0,1-1.735-1.85,1.7,1.7,0,0,1,1.735-1.735h15.5a1.8,1.8,0,0,1,1.735,1.85A1.637,1.637,0,0,1,44.24,59.776Zm5.088-15.034A13.244,13.244,0,0,0,44.7,53.763H28.4a13.383,13.383,0,0,0-4.742-9.021A19.814,19.814,0,1,1,56.267,29.708,18.968,18.968,0,0,1,49.328,44.742Z" transform="translate(-5.035 0.014)" fill="#0e918d"/>
      <path id="Path_1016" data-name="Path 1016" d="M33.156,6.32a1.093,1.093,0,0,0,1.156-1.156V2.156a1.156,1.156,0,1,0-2.313,0V5.163A1.093,1.093,0,0,0,33.156,6.32Z" transform="translate(-2.279 -1)" fill="#0e918d"/>
      <path id="Path_1017" data-name="Path 1017" d="M20.834,8.794a1.28,1.28,0,0,0,1.619.463,1.28,1.28,0,0,0,.463-1.619L21.3,4.978a1.28,1.28,0,0,0-1.619-.463,1.28,1.28,0,0,0-.463,1.619Z" transform="translate(-4.297 -0.467)" fill="#0e918d"/>
      <path id="Path_1018" data-name="Path 1018" d="M14.1,15.525l-2.66-1.5A1.191,1.191,0,1,0,10.285,16.1l2.66,1.5a1.17,1.17,0,0,0,1.619-.463A1.28,1.28,0,0,0,14.1,15.525Z" transform="translate(-5.774 1.012)" fill="#0e918d"/>
      <path id="Path_1019" data-name="Path 1019" d="M11.62,27.856A1.093,1.093,0,0,0,10.463,26.7H7.456a1.156,1.156,0,1,0,0,2.313h3.007A1.159,1.159,0,0,0,11.62,27.856Z" transform="translate(-6.3 3.021)" fill="#0e918d"/>
      <path id="Path_1020" data-name="Path 1020" d="M12.938,38.415l-2.66,1.5A1.191,1.191,0,0,0,11.434,42l2.66-1.5a1.191,1.191,0,1,0-1.156-2.082Z" transform="translate(-5.767 4.837)" fill="#0e918d"/>
      <path id="Path_1021" data-name="Path 1021" d="M56.4,40.025l-2.66-1.5A1.191,1.191,0,0,0,52.585,40.6l2.66,1.5a1.17,1.17,0,0,0,1.619-.463C57.095,40.951,56.979,40.257,56.4,40.025Z" transform="translate(0.844 4.846)" fill="#0e918d"/>
      <path id="Path_1022" data-name="Path 1022" d="M59.263,26.7H56.256a1.156,1.156,0,1,0,0,2.313h3.007a1.156,1.156,0,1,0,0-2.313Z" transform="translate(1.336 3.021)" fill="#0e918d"/>
      <path id="Path_1023" data-name="Path 1023" d="M53.734,17.6l2.66-1.5a1.28,1.28,0,0,0,.463-1.619,1.28,1.28,0,0,0-1.619-.463l-2.66,1.5A1.191,1.191,0,1,0,53.734,17.6Z" transform="translate(0.851 1.019)" fill="#0e918d"/>
      <path id="Path_1024" data-name="Path 1024" d="M44.185,9.264A1.17,1.17,0,0,0,45.8,8.8l1.5-2.66a1.191,1.191,0,0,0-2.082-1.156l-1.5,2.66A1.17,1.17,0,0,0,44.185,9.264Z" transform="translate(-0.47 -0.474)" fill="#0e918d"/>
    </g>
  </g>
</svg>
